<svg width="1440" height="1016" viewBox="0 0 1440 1016" fill="none" xmlns="http://www.w3.org/2000/svg">
<path fill-rule="evenodd" clip-rule="evenodd" d="M0.5 0C90.577 29.5863 346.984 81.0406 657.023 81.0406C678.752 81.0406 699.894 81.1116 720.5 81.2501C741.106 81.1116 762.248 81.0406 783.977 81.0406C1094.02 81.0406 1350.42 29.5863 1440.5 0V1005.23H1440H0.999878H0.5V0Z" fill="url(#paint0_linear_205_199311)"/>
<path fill-rule="evenodd" clip-rule="evenodd" d="M1439.98 10.7734C1350 40.1232 1091.86 91.1661 782.15 91.1661C746.102 91.1661 711.673 91.3603 678.625 91.7331C671.399 91.717 664.107 91.7089 656.748 91.7089C346.604 91.7089 90.1085 40.3213 0.000610352 10.7734V129.448L-0.0078125 129.448V1016H0.000610352H1437.99H1439.99V130.25L1439.75 130.228L1439.98 10.7734Z" fill="url(#paint1_linear_205_199311)"/>
<defs>
<linearGradient id="paint0_linear_205_199311" x1="-304.01" y1="-25.8206" x2="485.21" y2="1167.85" gradientUnits="userSpaceOnUse">
<stop stop-color="#F8D586"/>
<stop offset="1" stop-color="#F8D586" stop-opacity="0"/>
</linearGradient>
<linearGradient id="paint1_linear_205_199311" x1="297.332" y1="10.7734" x2="372.461" y2="1134.38" gradientUnits="userSpaceOnUse">
<stop stop-color="#E8ECFF"/>
<stop offset="1" stop-color="#E8ECFF" stop-opacity="0"/>
</linearGradient>
</defs>
</svg>
