<svg width="1438" height="1043" viewBox="0 0 1438 1043" fill="none" xmlns="http://www.w3.org/2000/svg">
<mask id="mask0_205_199270" style="mask-type:alpha" maskUnits="userSpaceOnUse" x="-33" y="0" width="1471" height="1043">
<rect x="-33" width="1471" height="1043" fill="#D9D9D9"/>
</mask>
<g mask="url(#mask0_205_199270)">
<path d="M756.594 368.63C1490.17 356.333 1578.04 -278.809 1481.3 -389C1698.45 -234.171 1824.77 118.992 1909.86 309.921C1739.68 447.789 1307.11 940.343 756.594 950.139C109.509 961.653 -228.742 385.147 756.594 368.63Z" fill="#F8D586"/>
<path d="M791.048 379.316C1463.6 363.541 1536.12 -165.437 1459.19 -359.156C1648.77 -314.37 1791.83 170.935 1870.82 357.989C1712.84 493.059 1259.59 943.231 748.55 952.828C109.752 964.825 -183.261 402.168 791.048 379.316Z" fill="#E8ECFF"/>
<path d="M791.261 379.43C1463.85 363.651 1540.47 -184.125 1463.53 -377.891C1653.12 -333.093 1792.1 170.998 1871.09 358.098C1713.1 493.2 1259.83 943.48 748.761 953.079C109.929 965.079 -183.099 402.287 791.261 379.43Z" fill="url(#paint0_linear_205_199270)"/>
</g>
<defs>
<linearGradient id="paint0_linear_205_199270" x1="1185" y1="-351.218" x2="1042.33" y2="1041.8" gradientUnits="userSpaceOnUse">
<stop stop-color="#E8ECFF"/>
<stop offset="1" stop-color="#E8ECFF" stop-opacity="0"/>
</linearGradient>
</defs>
</svg>
