<svg width="1438" height="1276" viewBox="0 0 1438 1276" fill="none" xmlns="http://www.w3.org/2000/svg">
<path fill-rule="evenodd" clip-rule="evenodd" d="M1438 1276C1413.77 1254.3 1091.4 1159.94 781.249 1159.94C759.6 1159.94 738.534 1159.84 717.999 1159.65C697.466 1159.84 676.4 1159.94 654.751 1159.94C344.605 1159.94 88.1085 1233.63 -1.99985 1276V1104.68L-2 1104.68V0.00012207H-1.99985H1438L1438 1104.68L1438 1276Z" fill="url(#paint0_linear_205_199355)"/>
<path fill-rule="evenodd" clip-rule="evenodd" d="M1438 1262.59C1413.77 1241.12 1091.4 1147.75 781.249 1147.75C759.6 1147.75 738.534 1147.65 718 1147.46C697.466 1147.65 676.4 1147.75 654.751 1147.75C344.605 1147.75 88.1084 1220.66 -1.99988 1262.59V1093.07L-2 1093.07V0.00341797H-1.99988H1438L1438 1093.07L1438 1262.59Z" fill="url(#paint1_linear_205_199355)"/>
<defs>
<linearGradient id="paint0_linear_205_199355" x1="1491.65" y1="1314.24" x2="-814.612" y2="1062.28" gradientUnits="userSpaceOnUse">
<stop stop-color="#F8D586"/>
<stop offset="1" stop-color="#F8D586" stop-opacity="0"/>
</linearGradient>
<linearGradient id="paint1_linear_205_199355" x1="1436.27" y1="1350.47" x2="1195.26" y2="-330.252" gradientUnits="userSpaceOnUse">
<stop stop-color="#E8ECFF"/>
<stop offset="1" stop-color="#E8ECFF" stop-opacity="0"/>
</linearGradient>
</defs>
</svg>
