<svg width="72" height="72" viewBox="0 0 72 72" fill="none" xmlns="http://www.w3.org/2000/svg">
<path d="M18.9416 21.7429C10.16 28.2653 8.53117 40.8967 15.2439 50.4182C19.293 56.1614 25.7394 59.7794 32.558 60.1354L36.3964 60.3359C48.8873 60.9881 59.0401 51.7314 59.4662 39.3022L59.4775 38.9742C59.6372 34.3157 58.3258 29.6273 55.7279 25.5686L55.3412 24.9645C48.7903 14.7301 35.5841 11.0876 25.6354 16.7711L22.2885 19.257L18.9416 21.7429Z" fill="url(#paint0_linear_205_177519)"/>
<g clip-path="url(#clip0_205_177519)">
<path d="M62.2338 50.7913H36.3177C35.6127 50.7913 35.0392 50.1639 35.0392 49.3929V30.3366C35.0362 30.1912 35.0741 30.0479 35.1487 29.9226C35.2232 29.7972 35.3315 29.6949 35.4614 29.6268L45.2548 23.7647C45.7916 23.5013 46.3827 23.3639 46.982 23.3633C47.5813 23.3627 48.1727 23.4989 48.7101 23.7613L63.0874 29.6262C63.218 29.694 63.3269 29.7964 63.402 29.922C63.477 30.0476 63.5152 30.1914 63.5122 30.3372V49.3929C63.5122 50.1639 62.9387 50.7913 62.2338 50.7913Z" fill="#F2F2F2"/>
<path d="M58.4041 50.7698H36.1492C35.5414 50.7698 35.0469 50.327 35.0469 49.7827V36.4622C35.0497 36.3512 35.0863 36.2436 35.1518 36.1534C35.2173 36.0632 35.3087 35.9946 35.4142 35.9564L45.7765 31.8579C46.7287 31.4854 47.7885 31.4849 48.741 31.8564L59.1385 35.9566C59.2441 35.9947 59.3357 36.0633 59.4013 36.1535C59.467 36.2438 59.5036 36.3515 59.5065 36.4626V49.7827C59.5065 50.327 59.0119 50.7698 58.4041 50.7698Z" fill="#F9A826"/>
<path d="M22.8781 36.7807C24.6791 36.7807 26.139 35.3371 26.139 33.5564C26.139 31.7756 24.6791 30.332 22.8781 30.332C21.0772 30.332 19.6172 31.7756 19.6172 33.5564C19.6172 35.3371 21.0772 36.7807 22.8781 36.7807Z" fill="#FF6584"/>
<path d="M24.2395 45.2975C26.5205 45.2975 28.3696 43.0089 28.3696 40.1859C28.3696 37.3628 26.5205 35.0742 24.2395 35.0742C21.9585 35.0742 20.1094 37.3628 20.1094 40.1859C20.1094 43.0089 21.9585 45.2975 24.2395 45.2975Z" fill="#F2F2F2"/>
<path d="M24.2546 39.1562H24.266L24.4702 50.7343H24.0391L24.2546 39.1562Z" fill="#CCCCCC"/>
<path d="M24.9569 46.8235C24.9695 46.8472 24.9721 46.8748 24.964 46.9004C24.956 46.926 24.938 46.9474 24.9141 46.9598L24.3217 47.2682L24.2266 47.0895L24.8189 46.7812C24.8429 46.7687 24.8709 46.7661 24.8968 46.7741C24.9226 46.782 24.9442 46.7998 24.9569 46.8235Z" fill="#CCCCCC"/>
<path d="M12.3645 45.2975C14.6455 45.2975 16.4946 43.0089 16.4946 40.1859C16.4946 37.3628 14.6455 35.0742 12.3645 35.0742C10.0835 35.0742 8.23438 37.3628 8.23438 40.1859C8.23438 43.0089 10.0835 45.2975 12.3645 45.2975Z" fill="#F2F2F2"/>
<path d="M13.0841 47.0127C13.0715 46.989 13.0498 46.9713 13.024 46.9633C12.9981 46.9554 12.9701 46.958 12.9461 46.9704L12.5326 47.1857L12.391 39.1562H12.3796L12.1641 50.7343H12.5952L12.5366 47.4118L13.0413 47.1491C13.0653 47.1366 13.0832 47.1153 13.0912 47.0897C13.0993 47.0641 13.0967 47.0364 13.0841 47.0127Z" fill="#CCCCCC"/>
<path d="M18.2896 28.4062C21.1799 28.4062 23.5291 33.7911 23.5291 37.3682C23.5291 40.9454 21.1861 43.8452 18.2958 43.8452C15.4055 43.8452 13.0625 40.9454 13.0625 37.3682C13.0625 33.7911 15.3993 28.4062 18.2896 28.4062Z" fill="#F9A826"/>
<path d="M19.2048 46.0214C19.1969 46.0065 19.1861 45.9934 19.173 45.9826C19.16 45.9719 19.1449 45.9638 19.1287 45.9588C19.1124 45.9538 19.0954 45.9521 19.0784 45.9536C19.0615 45.9552 19.0451 45.96 19.03 45.9678L18.506 46.2406L18.3266 36.0664H18.3122L18.0391 50.7371H18.5854L18.5111 46.5271L19.1506 46.1942C19.1656 46.1864 19.179 46.1757 19.1898 46.1628C19.2007 46.1499 19.2089 46.135 19.2139 46.1189C19.2189 46.1029 19.2207 46.086 19.2192 46.0693C19.2176 46.0525 19.2127 46.0363 19.2048 46.0214V46.0214Z" fill="#3F3D56"/>
<path d="M42.0816 41.6177V40.24C42.0816 40.0603 42.0094 39.888 41.8809 39.7609C41.7524 39.6339 41.5782 39.5625 41.3964 39.5625H37.8805C37.6988 39.5625 37.5245 39.6339 37.396 39.7609C37.2675 39.888 37.1953 40.0603 37.1953 40.24V41.6177H42.0816Z" fill="white"/>
<path d="M37.1953 41.832V43.9669C37.1953 44.1466 37.2675 44.3189 37.396 44.4459C37.5245 44.573 37.6988 44.6444 37.8805 44.6444H41.3964C41.5782 44.6444 41.7524 44.573 41.8809 44.4459C42.0094 44.3189 42.0816 44.1466 42.0816 43.9669V41.832H37.1953Z" fill="white"/>
<path d="M58.664 37.8357L48.1081 34.0096C47.4665 33.777 46.7623 33.777 46.1207 34.0096L35.5648 37.8357C35.3424 37.9163 35.1035 37.9427 34.8685 37.9125C34.6335 37.8823 34.4094 37.7965 34.2151 37.6623C34.0208 37.5282 33.8622 37.3496 33.7527 37.1418C33.6431 36.9341 33.5859 36.7033 33.5859 36.469V36.469C33.5859 36.1708 33.6785 35.8798 33.8512 35.6354C34.0239 35.391 34.2683 35.2048 34.5514 35.1022L46.1207 30.9088C46.7623 30.6762 47.4665 30.6762 48.1081 30.9088L59.6774 35.1022C59.9606 35.2048 60.205 35.391 60.3777 35.6354C60.5503 35.8798 60.6429 36.1708 60.6429 36.469V36.469C60.6429 36.7033 60.5857 36.9341 60.4762 37.1418C60.3667 37.3496 60.208 37.5282 60.0138 37.6623C59.8195 37.7965 59.5954 37.8823 59.3604 37.9125C59.1254 37.9427 58.8865 37.9163 58.664 37.8357Z" fill="#3F3D56"/>
<path d="M48.8178 50.8328H45.9965C45.6971 50.8324 45.41 50.7147 45.1983 50.5053C44.9866 50.296 44.8675 50.0122 44.8672 49.7161V42.9604C44.8675 42.6643 44.9866 42.3805 45.1983 42.1712C45.41 41.9618 45.6971 41.8441 45.9965 41.8438H48.8178C49.1172 41.8441 49.4042 41.9618 49.6159 42.1712C49.8277 42.3805 49.9467 42.6643 49.9471 42.9604V49.7161C49.9467 50.0122 49.8277 50.296 49.6159 50.5053C49.4042 50.7147 49.1172 50.8324 48.8178 50.8328V50.8328ZM45.9965 42.0352C45.7484 42.0355 45.5106 42.133 45.3352 42.3065C45.1597 42.4799 45.0611 42.7151 45.0608 42.9604V49.7161C45.0611 49.9614 45.1597 50.1966 45.3352 50.37C45.5106 50.5435 45.7484 50.641 45.9965 50.6413H48.8178C49.0659 50.641 49.3037 50.5435 49.4791 50.37C49.6545 50.1966 49.7532 49.9614 49.7535 49.7161V42.9604C49.7532 42.7151 49.6545 42.4799 49.4791 42.3065C49.3037 42.133 49.0659 42.0355 48.8178 42.0352H45.9965Z" fill="#3F3D56"/>
<path d="M49.0904 27.4756C49.045 26.9733 48.8111 26.5061 48.4348 26.1657C48.0584 25.8254 47.5669 25.6367 47.0569 25.6367C46.547 25.6367 46.0554 25.8254 45.6791 26.1657C45.3028 26.5061 45.0689 26.9733 45.0234 27.4756H49.0904Z" fill="white"/>
<path d="M45.0156 27.6914C45.025 28.2205 45.2442 28.7248 45.626 29.0957C46.0077 29.4666 46.5215 29.6744 47.0567 29.6744C47.5919 29.6744 48.1057 29.4666 48.4875 29.0957C48.8693 28.7248 49.0884 28.2205 49.0979 27.6914H45.0156Z" fill="white"/>
<path d="M48.77 29.9246H45.3423C45.179 29.9246 45.0224 29.8605 44.9069 29.7463C44.7914 29.6321 44.7266 29.4773 44.7266 29.3158C44.7266 29.1544 44.7914 28.9995 44.9069 28.8853C45.0224 28.7712 45.179 28.707 45.3423 28.707H48.77C48.9333 28.707 49.0899 28.7712 49.2053 28.8853C49.3208 28.9995 49.3857 29.1544 49.3857 29.3158C49.3857 29.4773 49.3208 29.6321 49.2053 29.7463C49.0899 29.8605 48.9333 29.9246 48.77 29.9246V29.9246Z" fill="#CCCCCC"/>
<path d="M37.2309 43.957C37.0847 43.957 36.9445 44.0144 36.8411 44.1167C36.7378 44.2189 36.6797 44.3575 36.6797 44.502C36.6797 44.6466 36.7378 44.7852 36.8411 44.8874C36.9445 44.9896 37.0847 45.047 37.2309 45.047H42.0442C42.1904 45.047 42.3306 44.9896 42.434 44.8874C42.5373 44.7852 42.5954 44.6466 42.5954 44.502C42.5954 44.3575 42.5373 44.2189 42.434 44.1167C42.3306 44.0144 42.1904 43.957 42.0442 43.957H37.2309Z" fill="#CCCCCC"/>
<path d="M52.1797 41.832V43.9669C52.1797 44.1466 52.2519 44.3189 52.3804 44.4459C52.5089 44.573 52.6832 44.6444 52.8649 44.6444H56.3808C56.5625 44.6444 56.7368 44.573 56.8653 44.4459C56.9938 44.3189 57.066 44.1466 57.066 43.9669V41.832H52.1797Z" fill="white"/>
<path d="M57.066 41.6177V40.24C57.066 40.0603 56.9938 39.888 56.8653 39.7609C56.7368 39.6339 56.5625 39.5625 56.3808 39.5625H52.8649C52.6832 39.5625 52.5089 39.6339 52.3804 39.7609C52.2519 39.888 52.1797 40.0603 52.1797 40.24V41.6177H57.066Z" fill="white"/>
<path d="M49.0808 46.5549C49.3023 46.5549 49.4819 46.3774 49.4819 46.1583C49.4819 45.9393 49.3023 45.7617 49.0808 45.7617C48.8593 45.7617 48.6797 45.9393 48.6797 46.1583C48.6797 46.3774 48.8593 46.5549 49.0808 46.5549Z" fill="#3F3D56"/>
<path d="M35.6112 46.4141L34.0312 43.984L34.1044 43.9375L35.6036 46.2435L36.8252 43.9408L36.9022 43.9807L35.6112 46.4141Z" fill="#3F3D56"/>
<path d="M36.8988 43.1874H33.1402V43.1229C33.1402 43.0186 33.1195 42.9152 33.0791 42.8188C33.0387 42.7223 32.9794 42.6347 32.9048 42.5609C32.8302 42.4871 32.7415 42.4286 32.644 42.3886C32.5465 42.3487 32.442 42.3281 32.3364 42.3281V42.3281C32.2308 42.3281 32.1263 42.3487 32.0288 42.3886C31.9313 42.4286 31.8426 42.4871 31.768 42.5609C31.6934 42.6347 31.6341 42.7223 31.5937 42.8188C31.5533 42.9152 31.5326 43.0186 31.5326 43.1229V43.1874H31.1632C30.95 43.1874 30.7456 43.2711 30.5948 43.4202C30.4441 43.5693 30.3594 43.7714 30.3594 43.9822C30.3594 44.193 30.4441 44.3952 30.5948 44.5442C30.7456 44.6933 30.95 44.777 31.1632 44.777H31.5326V50.7836C33.1343 50.7519 31.521 50.8157 33.1402 50.7836V44.777H36.8988C37.1119 44.777 37.3164 44.6933 37.4672 44.5442C37.6179 44.3952 37.7026 44.193 37.7026 43.9822C37.7026 43.7714 37.6179 43.5693 37.4672 43.4202C37.3164 43.2711 37.1119 43.1874 36.8988 43.1874V43.1874Z" fill="#3F3D56"/>
<path d="M32.312 44.2616C32.48 44.2616 32.6161 44.127 32.6161 43.9609C32.6161 43.7948 32.48 43.6602 32.312 43.6602C32.144 43.6602 32.0078 43.7948 32.0078 43.9609C32.0078 44.127 32.144 44.2616 32.312 44.2616Z" fill="white"/>
<path d="M37.3759 47.9463H33.9004C33.7362 47.9461 33.5789 47.8816 33.4628 47.7668C33.3467 47.652 33.2814 47.4964 33.2812 47.3341V46.2177C33.2814 46.0553 33.3467 45.8997 33.4628 45.785C33.5789 45.6702 33.7363 45.6057 33.9004 45.6055H37.3759C37.54 45.6057 37.6974 45.6702 37.8135 45.785C37.9296 45.8997 37.9948 46.0553 37.995 46.2177V47.3341C37.9949 47.4964 37.9296 47.652 37.8135 47.7668C37.6974 47.8816 37.54 47.9461 37.3759 47.9463V47.9463Z" fill="#CCCCCC"/>
<path d="M36.7206 46.4961H34.5046C34.3726 46.4961 34.2656 46.6019 34.2656 46.7324C34.2656 46.8629 34.3726 46.9687 34.5046 46.9687H36.7206C36.8526 46.9687 36.9596 46.8629 36.9596 46.7324C36.9596 46.6019 36.8526 46.4961 36.7206 46.4961Z" fill="#F9A826"/>
<path d="M67.9017 50.8487H3.65145C3.63822 50.8487 3.62553 50.8435 3.61617 50.8342C3.60682 50.825 3.60156 50.8124 3.60156 50.7993C3.60156 50.7862 3.60682 50.7737 3.61617 50.7644C3.62553 50.7552 3.63822 50.75 3.65145 50.75H67.9017C67.9149 50.75 67.9276 50.7552 67.937 50.7644C67.9463 50.7737 67.9516 50.7862 67.9516 50.7993C67.9516 50.8124 67.9463 50.825 67.937 50.8342C67.9276 50.8435 67.9149 50.8487 67.9017 50.8487V50.8487Z" fill="#737373"/>
<path d="M56.9916 45.1082H52.1782C52.0149 45.1082 51.8583 45.0441 51.7428 44.9299C51.6274 44.8157 51.5625 44.6609 51.5625 44.4994C51.5625 44.338 51.6274 44.1831 51.7428 44.0689C51.8583 43.9548 52.0149 43.8906 52.1782 43.8906H56.9916C57.1549 43.8906 57.3115 43.9548 57.4269 44.0689C57.5424 44.1831 57.6073 44.338 57.6073 44.4994C57.6073 44.6609 57.5424 44.8157 57.4269 44.9299C57.3115 45.0441 57.1549 45.1082 56.9916 45.1082Z" fill="#CCCCCC"/>
<path d="M63.4608 30.9723C63.4608 30.9723 62.2935 30.8904 59.9115 30.7808C57.0721 25.8676 47.8438 24.6834 47.8438 21.1484V21.1484H59.1863C60.3212 21.1484 61.4096 21.5942 62.212 22.3877C63.0145 23.1811 63.4653 24.2573 63.4653 25.3794L63.4608 30.9723Z" fill="#CCCCCC"/>
<path d="M53.6202 22.4414C53.5946 22.4414 53.57 22.4515 53.5518 22.4695C53.5337 22.4874 53.5235 22.5117 53.5234 22.5371V25.7326C53.5235 25.758 53.5337 25.7823 53.5518 25.8003C53.57 25.8182 53.5946 25.8283 53.6202 25.8283H55.6333C55.659 25.8283 55.6836 25.8182 55.7017 25.8003C55.7199 25.7823 55.7301 25.758 55.7301 25.7326V22.5371C55.7301 22.5117 55.7199 22.4874 55.7017 22.4695C55.6836 22.4515 55.659 22.4414 55.6333 22.4414H53.6202Z" fill="#F2F2F2"/>
<path d="M59.2109 30.7146L48.655 24.4236C48.0134 24.1911 47.3092 24.1911 46.6676 24.4236L36.1117 30.7146C35.8892 30.7952 35.6503 30.8216 35.4154 30.7914C35.1804 30.7612 34.9562 30.6754 34.762 30.5412C34.5677 30.407 34.4091 30.2285 34.2995 30.0207C34.19 29.813 34.1328 29.5821 34.1328 29.3478V29.3478C34.1328 29.0497 34.2254 28.7587 34.3981 28.5143C34.5708 28.2698 34.8152 28.0837 35.0983 27.9811L46.6676 21.3228C47.3092 21.0903 48.0134 21.0903 48.655 21.3228L60.2243 27.9811C60.5074 28.0837 60.7519 28.2698 60.9245 28.5143C61.0972 28.7587 61.1898 29.0497 61.1898 29.3478V29.3478C61.1898 29.5821 61.1326 29.813 61.0231 30.0207C60.9135 30.2285 60.7549 30.407 60.5606 30.5412C60.3664 30.6754 60.1422 30.7612 59.9073 30.7914C59.6723 30.8216 59.4334 30.7952 59.2109 30.7146V30.7146Z" fill="#CCCCCC"/>
</g>
<defs>
<linearGradient id="paint0_linear_205_177519" x1="8.72602" y1="31.6646" x2="65.3088" y2="44.7056" gradientUnits="userSpaceOnUse">
<stop stop-color="#B1C0FF"/>
<stop offset="0.96875" stop-color="#F8D586"/>
</linearGradient>
<clipPath id="clip0_205_177519">
<rect width="64.35" height="29.7" fill="white" transform="translate(3.60156 21.1484)"/>
</clipPath>
</defs>
</svg>
