<svg width="46" height="56" viewBox="0 0 46 56" fill="none" xmlns="http://www.w3.org/2000/svg">
<path d="M36.5354 55.9991H26.2728L23.3711 54.6412L23.2223 54.5713L22.2329 54.9657C19.8665 53.2112 15.964 49.3391 17.6138 43.7305L21.9028 43.7666L38.324 43.9074C39.5738 45.4874 40.5823 47.2645 41.2978 49.1847C42.5294 52.4865 40.0592 55.9991 36.5354 55.9991Z" fill="#DEDEF9"/>
<path d="M23.3683 54.6424L23.2196 54.5725L22.2302 54.9669L19.6383 56.0003H9.47365C5.9498 56.0003 3.47968 52.4877 4.71146 49.186C5.46647 47.1587 6.5494 45.2915 7.89493 43.6484L17.611 43.7318L21.9001 43.7679C21.8978 44.1342 21.9001 44.5037 21.9068 44.8778C21.9113 45.1506 21.9181 45.4256 21.9283 45.7016C22.0341 48.6721 22.4341 51.8004 23.3683 54.6424Z" fill="#D2D2FF"/>
<path d="M40.8175 33.0921C43.6292 33.0921 45.9085 30.8128 45.9085 28.0011C45.9085 25.1895 43.6292 22.9102 40.8175 22.9102C38.0059 22.9102 35.7266 25.1895 35.7266 28.0011C35.7266 30.8128 38.0059 33.0921 40.8175 33.0921Z" fill="#FFCBBE"/>
<path d="M5.18472 33.0921C7.99638 33.0921 10.2757 30.8128 10.2757 28.0011C10.2757 25.1895 7.99638 22.9102 5.18472 22.9102C2.37305 22.9102 0.09375 25.1895 0.09375 28.0011C0.09375 30.8128 2.37305 33.0921 5.18472 33.0921Z" fill="#FFDDCF"/>
<path d="M26.3348 56.0013H23.7638C23.7638 56.0013 19.7638 52.6939 22.0323 47.5508H24.6444L26.3348 56.0013Z" fill="#767678"/>
<path d="M23.8563 56.0013H19.5547L21.2517 47.5508H22.0338C22.2604 50.4491 22.7812 53.3746 23.8563 56.0013Z" fill="#666667"/>
<path d="M38.3191 43.9089L29.181 49.8657C28.3731 50.3941 27.2664 50.197 26.712 49.4272L23.6953 45.4719L34.4662 40.207C35.9143 41.2597 37.2113 42.506 38.3191 43.9089Z" fill="#EFEDFE"/>
<path d="M22.3644 45.1001L21.9317 45.7008L19.2699 49.4038C18.7325 50.1971 17.6585 50.4 16.873 49.8556L7.89844 43.6476C9.04677 42.2435 10.3877 41.0027 11.8797 39.9648L21.9102 44.877L22.3644 45.1001Z" fill="#DEDEF9"/>
<path d="M25.4921 46.702C25.4921 48.1072 24.3517 49.2475 22.9464 49.2475C22.6827 49.2475 22.4281 49.207 22.1881 49.1326C22.1881 49.1326 20.2161 47.0366 21.8974 44.3828C22.2175 44.2374 22.5724 44.1562 22.9465 44.1562C24.3517 44.1562 25.4921 45.2955 25.4921 46.702Z" fill="#666667"/>
<path d="M22.1857 49.1326C21.1501 48.8104 20.3984 47.8435 20.3984 46.702C20.3984 45.6697 21.0126 44.7818 21.895 44.3828C21.9074 45.9254 21.993 47.5302 22.1857 49.1326Z" fill="#575757"/>
<path d="M40.8193 27.9982C40.8193 37.8121 32.8742 45.8167 23.0008 45.8167C20.757 45.8167 18.6103 45.4021 16.6338 44.6446C16.6338 44.6446 16.6327 44.6446 16.6315 44.6435C16.4084 44.5005 -5.21448 30.5573 17.3426 11.0981L17.3437 11.0969C19.1208 10.502 21.023 10.1797 23.0008 10.1797C32.842 10.1797 40.8193 18.157 40.8193 27.9982Z" fill="#FFDDCF"/>
<path d="M16.6391 44.6482C9.84512 42.0502 5.1875 35.4971 5.1875 28.0016C5.1875 20.1381 10.2799 13.4657 17.3478 11.1016C17.1731 11.2672 0.710343 26.9795 16.6391 44.6482Z" fill="#FFCBBE"/>
<path d="M42.2763 22.6191C42.1668 23.2933 41.5285 23.7943 40.8305 23.7009C36.7545 23.1544 33.5868 18.7798 32.2221 16.5586C31.7927 15.8599 30.9239 15.5647 30.1633 15.8702C27.0925 17.1008 24.0803 17.3013 21.5313 17.0804C6.85797 8.63888 21.3441 0.0710937 21.3441 0.0710937C21.8919 0.023625 22.4464 0 23.0064 0C30.7786 0 37.4905 4.54355 40.6288 11.1213C42.3546 14.7364 42.893 18.7521 42.2763 22.6191Z" fill="#767678"/>
<path d="M21.5249 17.0797C19.0829 16.8678 17.0669 16.2684 15.8329 15.8176C15.0757 15.5414 14.2283 15.8322 13.8068 16.5206C12.4556 18.7295 9.27436 23.1502 5.17586 23.7001C4.49402 23.796 3.83984 23.3051 3.72894 22.6172C3.56772 21.6075 3.48438 20.5708 3.48438 19.5148C3.48438 16.5094 4.16392 13.6628 5.37755 11.1205C8.28944 5.01734 14.2788 0.664109 21.3378 0.0703125C19.5336 3.96034 17.9086 10.2924 21.5249 17.0797Z" fill="#666667"/>
<path d="M14.0345 31.2608C15.8614 31.2608 17.3424 30.0814 17.3424 28.6265C17.3424 27.1716 15.8614 25.9922 14.0345 25.9922C12.2076 25.9922 10.7266 27.1716 10.7266 28.6265C10.7266 30.0814 12.2076 31.2608 14.0345 31.2608Z" fill="#FFA1AC"/>
<path d="M31.972 31.2608C33.7989 31.2608 35.2799 30.0814 35.2799 28.6265C35.2799 27.1716 33.7989 25.9922 31.972 25.9922C30.1451 25.9922 28.6641 27.1716 28.6641 28.6265C28.6641 30.0814 30.1451 31.2608 31.972 31.2608Z" fill="#FFA1AC"/>
<path d="M15.9623 26.9371C15.4955 26.9371 15.1172 26.5588 15.1172 26.092V24.7397C15.1172 24.2729 15.4955 23.8945 15.9623 23.8945C16.4291 23.8945 16.8075 24.2729 16.8075 24.7397V26.092C16.8076 26.5588 16.4291 26.9371 15.9623 26.9371Z" fill="#455059"/>
<path d="M30.0405 26.9371C29.5736 26.9371 29.1953 26.5588 29.1953 26.092V24.7397C29.1953 24.2729 29.5736 23.8945 30.0405 23.8945C30.5073 23.8945 30.8856 24.2729 30.8856 24.7397V26.092C30.8856 26.5588 30.5073 26.9371 30.0405 26.9371Z" fill="#455059"/>
<path d="M22.9973 27.7426C22.0418 27.7426 21.1334 27.3289 20.5049 26.6075C20.1982 26.2556 20.2349 25.7217 20.5869 25.4151C20.9388 25.1085 21.4726 25.145 21.7793 25.4971C22.0868 25.85 22.5308 26.0523 22.9974 26.0523C23.464 26.0523 23.9081 25.85 24.2155 25.4971C24.522 25.1449 25.056 25.1084 25.4079 25.4151C25.7599 25.7217 25.7966 26.2556 25.49 26.6075C24.8612 27.3289 23.9528 27.7426 22.9973 27.7426Z" fill="#455059"/>
</svg>
