<svg width="56" height="56" viewBox="0 0 56 56" fill="none" xmlns="http://www.w3.org/2000/svg">
<g clip-path="url(#clip0_205_178077)">
<path d="M41.5347 55.9998H39.8838L28.3974 54.7287L28.2227 54.7095L27.1837 54.82C23.8774 52.6057 18.7545 47.0748 26.3633 36.5531C26.9042 36.5069 27.4519 36.4844 28.0052 36.4844C36.386 36.4844 43.5328 41.7672 46.297 49.1855C47.5287 52.4874 45.0586 55.9998 41.5347 55.9998Z" fill="#A8E1F6"/>
<path d="M28.3953 54.7303L28.2206 54.7112L27.1817 54.8216L16.1246 56.0015H14.4737C10.9499 56.0015 8.47974 52.4889 9.71141 49.1872C12.2931 42.2578 18.6984 37.1926 26.3612 36.5547C25.9059 38.761 24.2257 48.4703 28.3953 54.7303Z" fill="#91D4F2"/>
<path d="M45.8252 33.0919C48.6368 33.0919 50.9161 30.8126 50.9161 28.001C50.9161 25.1894 48.6368 22.9102 45.8252 22.9102C43.0136 22.9102 40.7344 25.1894 40.7344 28.001C40.7344 30.8126 43.0136 33.0919 45.8252 33.0919Z" fill="#FFCBBE"/>
<path d="M10.1846 33.0919C12.9962 33.0919 15.2755 30.8126 15.2755 28.001C15.2755 25.1894 12.9962 22.9102 10.1846 22.9102C7.37301 22.9102 5.09375 25.1894 5.09375 28.001C5.09375 30.8126 7.37301 33.0919 10.1846 33.0919Z" fill="#FFDDCF"/>
<path d="M37.9564 50.9062V55.2878L36.4875 55.9977H29.3671C23.6195 54.3177 26.6175 50.9062 26.6175 50.9062H37.9564Z" fill="#687DAA"/>
<path d="M29.3681 55.9977H19.5178L18.3125 55.3206V50.9062H26.6184C27.1916 52.7602 28.0677 54.5189 29.3681 55.9977Z" fill="#5972A5"/>
<path d="M39.8828 56H36.4889V39.8788H39.8828V56Z" fill="#7888AF"/>
<path d="M16.125 39.8789H19.5189V56.0001H16.125V39.8789Z" fill="#7888AF"/>
<path d="M44.492 34.7663C41.7898 41.3416 35.3592 45.8167 28.0044 45.8167C26.447 45.8167 24.9369 45.6172 23.4968 45.2397C23.4968 45.2397 23.4957 45.2397 23.4945 45.2386C23.2624 45.136 3.41665 36.2223 16.9991 13.9831C20.0282 11.6007 23.8506 10.1797 28.0044 10.1797C40.7174 10.1797 49.2802 23.1133 44.492 34.7663Z" fill="#FFDDCF"/>
<path d="M23.4983 45.241C19.6602 44.2438 16.249 41.9681 13.833 38.7986C11.4678 35.7001 10.1875 31.933 10.1875 27.9996C10.1875 22.3121 12.8514 17.2479 17.0007 13.9844C15.3802 21.5244 13.9061 36.0557 23.4983 45.241Z" fill="#FFCBBE"/>
<path d="M28.9055 34.9951C32.1072 35.8828 34.5616 35.2924 35.8048 34.5628C36.2008 34.3304 36.1537 33.7445 35.7274 33.5732C34.9155 33.2469 33.8158 32.7438 33.3127 32.2408C32.4641 31.3923 31.6157 29.6953 28.2217 29.6953C24.8278 29.6953 23.9792 31.3923 23.1308 32.2408C22.6277 32.7439 21.5279 33.247 20.7159 33.5733C20.2898 33.7445 20.2426 34.3304 20.6386 34.5628C21.8817 35.2924 24.336 35.8828 27.5379 34.9951C27.9849 34.871 28.4584 34.871 28.9055 34.9951Z" fill="#EAAA83"/>
<path d="M47.5179 19.5156C47.5179 20.6639 47.4187 21.7897 47.2283 22.8827C39.0853 16.6949 31.3909 15.3821 25.0566 16.0627C12.1999 10.1241 26.8867 0.0316094 26.8867 0.0316094C27.2552 0.0101719 27.6282 0 28.0023 0C35.7745 0 42.4863 4.54366 45.6247 11.1214C46.8383 13.6636 47.5179 16.5102 47.5179 19.5156Z" fill="#7888AF"/>
<path d="M25.0543 16.0623C15.3054 17.1115 8.774 22.8823 8.774 22.8823C8.58358 21.7892 8.48438 20.6634 8.48438 19.5152C8.48438 16.5098 9.16392 13.6632 10.3775 11.1209C13.3649 4.85994 19.5888 0.4425 26.8843 0.03125C25.5309 2.44614 22.2336 9.4363 25.0543 16.0623Z" fill="#687DAA"/>
<path d="M22.6192 27.8509C22.1524 27.8509 21.7741 27.4726 21.7741 27.0058C21.7741 26.6164 21.4573 26.2997 21.0681 26.2997C20.6788 26.2997 20.3622 26.6164 20.3622 27.0058C20.3622 27.4726 19.9837 27.8509 19.517 27.8509C19.0502 27.8509 18.6719 27.4726 18.6719 27.0058C18.6719 25.6844 19.7468 24.6094 21.0682 24.6094C22.3895 24.6094 23.4646 25.6844 23.4646 27.0058C23.4644 27.4725 23.086 27.8509 22.6192 27.8509Z" fill="#455059"/>
<path d="M36.4864 27.8509C36.0197 27.8509 35.6413 27.4726 35.6413 27.0058C35.6413 26.6164 35.3245 26.2997 34.9353 26.2997C34.546 26.2997 34.2293 26.6164 34.2293 27.0058C34.2293 27.4726 33.8509 27.8509 33.3842 27.8509C32.9174 27.8509 32.5391 27.4726 32.5391 27.0058C32.5391 25.6844 33.614 24.6094 34.9354 24.6094C36.2567 24.6094 37.3318 25.6844 37.3318 27.0058C37.3315 27.4725 36.9531 27.8509 36.4864 27.8509Z" fill="#455059"/>
<path d="M50.9089 21.6581C50.9089 23.0716 49.7076 24.1225 48.3587 24.1225C48.0454 24.1225 47.7242 24.0662 47.4086 23.944C41.0845 21.5043 34.3907 20.3021 27.7016 20.3396C22.2012 18.8509 24.6983 15.1362 24.6983 15.1362C32.377 14.6665 40.1379 15.8347 47.4086 18.6408L49.3052 19.3723C50.2744 19.7454 50.9089 20.6506 50.9089 21.6581Z" fill="#687DAA"/>
<path d="M27.7038 20.3401C21.2128 20.3753 14.7287 21.5776 8.59386 23.9446C6.92425 24.5907 5.09375 23.4051 5.09375 21.6586C5.09375 20.662 5.71795 19.75 6.6973 19.3728L8.59386 18.6413C13.7821 16.6383 19.2205 15.4713 24.7005 15.1367C25.2798 16.9084 26.2354 18.673 27.7038 20.3401Z" fill="#5972A5"/>
</g>
<defs>
<clipPath id="clip0_205_178077">
<rect width="56" height="56" fill="white"/>
</clipPath>
</defs>
</svg>
