<svg width="371" height="101" viewBox="0 0 371 101" fill="none" xmlns="http://www.w3.org/2000/svg">
<g filter="url(#filter0_f_205_200142)">
<path d="M362.506 39.4218C363.453 40.5301 364.238 41.6551 364.854 42.7951L363.116 43.4143L363.825 45.2989C364.241 46.4048 364.465 47.5071 364.501 48.6112C364.538 49.7154 364.386 50.8217 364.043 51.9355L363.458 53.8338L365.236 54.416C364.695 55.5682 363.985 56.7089 363.111 57.8364L361.677 56.5236L360.343 57.9839C358.833 59.6378 356.913 61.2914 354.587 62.931L352.969 64.0712L354.126 65.6835C353.038 66.3934 351.883 67.0954 350.663 67.7891L349.698 66.0441L347.951 66.9803C345.784 68.1419 343.421 69.2827 340.869 70.3993L339.052 71.1947L339.882 73.0143C338.667 73.5233 337.415 74.0263 336.127 74.5231L335.398 72.6589L333.537 73.35C331.143 74.2387 328.628 75.1074 325.997 75.9543L324.105 76.5633L324.754 78.4584C323.484 78.8541 322.189 79.2447 320.87 79.6299L320.287 77.7135L318.373 78.2556C315.884 78.9609 313.31 79.648 310.657 80.3158L308.727 80.8014L309.255 82.7342C307.948 83.0538 306.623 83.3688 305.28 83.679L304.801 81.7339L302.859 82.1705C300.303 82.745 297.684 83.3024 295.004 83.8421L293.052 84.2353L293.488 86.1902C292.166 86.4494 290.83 86.7043 289.48 86.9548L289.083 84.992L287.122 85.3463C284.534 85.8139 281.897 86.2654 279.213 86.7003L277.246 87.0191L277.608 88.9884C276.275 89.1985 274.931 89.4046 273.576 89.6066L273.246 87.632L271.273 87.9181C268.656 88.2974 266 88.6613 263.306 89.0091L261.328 89.2646L261.627 91.2436C260.284 91.412 258.932 91.5765 257.571 91.737L257.301 89.7543L255.318 89.981C252.681 90.2825 250.012 90.569 247.312 90.8401L245.326 91.0394L245.57 93.0252C244.219 93.1562 242.862 93.2834 241.497 93.4067L241.28 91.4183L239.291 91.5916C236.638 91.8226 233.96 92.0388 231.256 92.2399L229.264 92.388L229.456 94.3785C228.101 94.4751 226.739 94.568 225.371 94.657L225.203 92.6648L223.209 92.7886C220.549 92.9537 217.866 93.1043 215.164 93.24L213.168 93.3402L213.313 95.3338C211.957 95.398 210.596 95.4583 209.23 95.515L209.108 93.5202L207.111 93.5973C204.442 93.7004 201.755 93.7889 199.05 93.8626L197.052 93.9171L197.151 95.9126C195.791 95.9459 194.427 95.9755 193.059 96.0012L192.982 94.0052L190.983 94.0374C189.637 94.059 188.287 94.077 186.933 94.0912C185.579 94.1055 184.229 94.116 182.882 94.1227L180.882 94.1327L180.937 96.129C179.568 96.132 178.203 96.1313 176.842 96.1266L176.81 94.1304L174.809 94.1181C172.102 94.1014 169.411 94.0696 166.736 94.0228L164.736 93.9879L164.745 95.9837C163.377 95.956 162.012 95.9243 160.653 95.8887L160.667 93.8934L158.666 93.8354C155.956 93.7568 153.266 93.6628 150.597 93.5538L148.596 93.4721L148.559 95.4665C147.186 95.4063 145.819 95.3422 144.458 95.2742L144.519 93.281L142.519 93.175C139.804 93.031 137.113 92.8714 134.447 92.6964L132.448 92.5652L132.362 94.5568C130.99 94.4623 129.625 94.3639 128.267 94.2614L128.38 92.2718L126.382 92.1145C123.666 91.9005 120.98 91.6704 118.325 91.4247L116.329 91.2399L116.189 93.2269C114.818 93.0952 113.456 92.9593 112.103 92.8193L112.272 90.8354L110.279 90.6218C107.564 90.3309 104.886 90.0233 102.246 89.6994L100.255 89.4551L100.055 91.4352C98.6881 91.2619 97.3314 91.0843 95.9855 90.9023L96.2182 88.9268L94.2308 88.6497C91.5204 88.2716 88.8556 87.876 86.2388 87.4633L84.256 87.1505L83.9877 89.1203C82.6227 88.8985 81.2709 88.6719 79.9327 88.4407L80.2401 86.4779L78.263 86.1261C75.5498 85.6433 72.8957 85.1415 70.3038 84.6212L68.334 84.2259L67.9831 86.1797C66.621 85.898 65.2764 85.6111 63.9497 85.3193L64.3498 83.3767L62.3895 82.9321C59.6937 82.3207 57.0769 81.6883 54.5429 81.0359L52.5952 80.5345L52.1384 82.4619C50.7951 82.1047 49.4756 81.7417 48.1804 81.373L48.7042 79.4656L46.7737 78.8969C44.0887 78.1059 41.5181 77.2908 39.0676 76.4532L37.1617 75.8018L36.5558 77.6801C35.2361 77.2108 33.9521 76.7345 32.7046 76.2514L33.4148 74.4156L31.5463 73.659C28.9232 72.597 26.4864 71.5068 24.2443 70.3916L22.4374 69.4929L21.5882 71.257C20.3235 70.5895 19.123 69.9123 17.9889 69.2258L19.0386 67.5903L17.3472 66.4849C14.9151 64.8955 12.888 63.2835 11.2698 61.6625L9.8411 60.2314L8.49394 61.5735C7.54707 60.4651 6.76215 59.3402 6.14571 58.2002L7.8841 57.5809L7.17506 55.6963C6.75901 54.5904 6.53486 53.4881 6.49857 52.384C6.46227 51.2798 6.61383 50.1736 6.95692 49.0597L7.54161 47.1614L5.76373 46.5793C6.30482 45.427 7.01527 44.2863 7.88865 43.1588L9.32307 44.4716L10.6567 43.0114C12.1673 41.3574 14.0871 39.7038 16.413 38.0643L18.0306 36.924L16.8741 35.3117C17.9624 34.6018 19.1175 33.8998 20.3374 33.2061L21.3019 34.9511L23.0486 34.0149C25.2158 32.8533 27.5793 31.7125 30.1307 30.5959L31.9483 29.8005L31.1179 27.9809C32.3328 27.4719 33.5846 26.9689 34.8725 26.4721L35.6015 28.3363L37.4632 27.6452C39.857 26.7565 42.3723 25.8878 45.0034 25.0409L46.8952 24.4319L46.2464 22.5368C47.5165 22.1411 48.8113 21.7506 50.1301 21.3653L50.7133 23.2817L52.6267 22.7396C55.116 22.0343 57.6895 21.3472 60.3432 20.6794L62.2729 20.1938L61.7454 18.261C63.0521 17.9414 64.3769 17.6264 65.7195 17.3163L66.1986 19.2613L68.141 18.8247C70.697 18.2502 73.3162 17.6928 75.9958 17.1532L77.9484 16.7599L77.5123 14.805C78.8343 14.5458 80.1703 14.2909 81.5198 14.0405L81.9174 16.0032L83.8782 15.6489C86.4661 15.1813 89.103 14.7298 91.7868 14.295L93.7545 13.9761L93.3922 12.0069C94.7252 11.7967 96.0692 11.5906 97.4241 11.3887L97.7538 13.3632L99.7273 13.0771C102.344 12.6978 105 12.334 107.694 11.9861L109.672 11.7306L109.373 9.75161C110.716 9.58319 112.068 9.41872 113.429 9.25827L113.699 11.2409L115.682 11.0142C118.319 10.7127 120.988 10.4262 123.688 10.1552L125.674 9.95581L125.43 7.97002C126.781 7.839 128.138 7.71182 129.503 7.58856L129.72 9.5769L131.709 9.40366C134.362 9.17266 137.04 8.95642 139.744 8.75535L141.736 8.60724L141.544 6.61675C142.899 6.52009 144.261 6.42723 145.629 6.33821L145.797 8.33044L147.791 8.20666C150.451 8.0415 153.134 7.8909 155.836 7.75524L157.832 7.65506L157.687 5.66142C159.043 5.59728 160.404 5.53688 161.77 5.48027L161.892 7.47499L163.889 7.39788C166.558 7.29484 169.245 7.20629 171.95 7.13259L173.948 7.07813L173.849 5.08261C175.209 5.04932 176.573 5.01977 177.941 4.99401L178.018 6.99004L180.017 6.95788C181.363 6.93622 182.713 6.91824 184.067 6.90398C185.421 6.88971 186.771 6.87924 188.118 6.87252L190.118 6.86253L190.063 4.86626C191.432 4.86319 192.797 4.86397 194.158 4.86859L194.19 6.86481L196.191 6.87713C198.898 6.8938 201.589 6.92567 204.264 6.9724L206.265 7.00738L206.255 5.01148C207.624 5.03927 208.988 5.07095 210.347 5.10648L210.333 7.10179L212.334 7.15985C215.044 7.23847 217.734 7.33245 220.403 7.44145L222.404 7.52314L222.441 5.52875C223.814 5.58888 225.181 5.65299 226.542 5.72101L226.481 7.71418L228.481 7.82022C231.196 7.96418 233.887 8.12384 236.553 8.29879L238.552 8.43L238.638 6.43846C240.01 6.53288 241.375 6.63137 242.733 6.73386L242.62 8.72339L244.618 8.88078C247.334 9.09472 250.02 9.32479 252.675 9.57056L254.671 9.75533L254.811 7.76834C256.182 7.90002 257.544 8.03588 258.897 8.17589L258.728 10.1598L260.721 10.3735C263.436 10.6643 266.114 10.972 268.754 11.2959L270.745 11.5402L270.945 9.56005C272.312 9.7333 273.669 9.91093 275.014 10.0929L274.782 12.0684L276.769 12.3456C279.48 12.7236 282.144 13.1192 284.761 13.532L286.744 13.8447L287.012 11.8749C288.377 12.0968 289.729 12.3233 291.067 12.5545L290.76 14.5173L292.737 14.8691C295.45 15.3519 298.104 15.8538 300.696 16.374L302.666 16.7694L303.017 14.8156C304.379 15.0972 305.724 15.3841 307.05 15.676L306.65 17.6185L308.61 18.0631C311.306 18.6746 313.923 19.307 316.457 19.9593L318.405 20.4607L318.862 18.5333C320.205 18.8906 321.524 19.2536 322.82 19.6222L322.296 21.5297L324.226 22.0984C326.911 22.8893 329.482 23.7044 331.932 24.542L333.838 25.1934L334.444 23.3152C335.764 23.7844 337.048 24.2607 338.295 24.7438L337.585 26.5796L339.454 27.3362C342.077 28.3982 344.514 29.4885 346.756 30.6036L348.563 31.5023L349.412 29.7382C350.677 30.4057 351.877 31.0829 353.011 31.7694L351.961 33.4049L353.653 34.5103C356.085 36.0997 358.112 37.7117 359.73 39.3327L361.159 40.7639L362.506 39.4218Z" stroke="url(#paint0_linear_205_200142)" stroke-width="4" stroke-linecap="square" stroke-linejoin="bevel" stroke-dasharray="8 8"/>
</g>
<defs>
<filter id="filter0_f_205_200142" x="0.492188" y="0.867188" width="370.016" height="99.2656" filterUnits="userSpaceOnUse" color-interpolation-filters="sRGB">
<feFlood flood-opacity="0" result="BackgroundImageFix"/>
<feBlend mode="normal" in="SourceGraphic" in2="BackgroundImageFix" result="shape"/>
<feGaussianBlur stdDeviation="2" result="effect1_foregroundBlur_205_200142"/>
</filter>
<linearGradient id="paint0_linear_205_200142" x1="71.8973" y1="6.08644" x2="93.727" y2="135.3" gradientUnits="userSpaceOnUse">
<stop stop-color="#B1C0FF"/>
<stop offset="0.96875" stop-color="#F8D586"/>
</linearGradient>
</defs>
</svg>
