<svg width="54" height="56" viewBox="0 0 54 56" fill="none" xmlns="http://www.w3.org/2000/svg">
<path d="M13.4514 16.8338C12.0614 19.0361 9.13577 19.686 6.91666 18.2854C5.32569 17.2814 4.5302 15.4959 4.7192 13.7541C4.0985 13.6555 3.48644 13.4323 2.92042 13.0751C0.701314 11.6747 0.0290952 8.75393 1.41903 6.55178C2.5445 4.76863 4.67666 4.00367 6.6255 4.52035C6.7433 4.04982 6.93547 3.5899 7.20825 3.15787C8.59819 0.955604 11.5239 0.305697 13.743 1.70624C13.8798 1.79254 14.0106 1.88474 14.1355 1.9822C15.5741 -0.0516306 18.3832 -0.616771 20.5308 0.738604C22.7499 2.13915 23.4221 5.05979 22.0323 7.26206L13.4514 16.8338Z" fill="#DEDEF9"/>
<path d="M40.5467 16.8338C41.9367 19.0361 44.8623 19.686 47.0815 18.2854C48.6724 17.2814 49.4679 15.4959 49.2789 13.7541C49.8996 13.6555 50.5117 13.4323 51.0777 13.0751C53.2968 11.6746 53.969 8.75394 52.5792 6.55167C51.4538 4.76853 49.3216 4.00356 47.3727 4.52025C47.2549 4.04972 47.0628 3.5898 46.79 3.15777C45.4 0.9555 42.4744 0.305594 40.2552 1.70614C40.1184 1.79244 39.9876 1.88464 39.8627 1.98209C38.424 -0.0516252 35.6149 -0.616766 33.4673 0.738609C31.2482 2.13916 30.576 5.0598 31.9658 7.26206L40.5467 16.8338Z" fill="#EFEDFE"/>
<path d="M44.8174 27.838C47.629 27.838 49.9083 25.5587 49.9083 22.7471C49.9083 19.9355 47.629 17.6562 44.8174 17.6562C42.0058 17.6562 39.7266 19.9355 39.7266 22.7471C39.7266 25.5587 42.0058 27.838 44.8174 27.838Z" fill="#FFCBBE"/>
<path d="M9.1768 27.838C11.9884 27.838 14.2677 25.5587 14.2677 22.7471C14.2677 19.9355 11.9884 17.6562 9.1768 17.6562C6.36519 17.6562 4.08594 19.9355 4.08594 22.7471C4.08594 25.5587 6.36519 27.838 9.1768 27.838Z" fill="#FFDDCF"/>
<path d="M40.5841 55.998H38.0305L35.4848 54.9004L32.9403 55.998H26.8044C26.8044 55.998 10.8544 48.3858 23.6074 36.7066C24.7264 36.5071 25.878 36.4023 27.0545 36.4023C35.4353 36.4023 42.582 41.7066 45.3463 49.1554C46.5769 52.4708 44.1079 55.998 40.5841 55.998Z" fill="#7888AF"/>
<path d="M26.8006 56.0023H21.0568L18.5123 55.1177L15.9666 56.0023H13.5212C9.99735 56.0023 7.52722 52.475 8.7578 49.1598C11.1344 42.7567 16.7497 37.9381 23.6035 36.7109C23.2295 40.0601 22.5714 49.8901 26.8006 56.0023Z" fill="#687DAA"/>
<path d="M44.8177 22.7482C44.8177 32.5893 36.8404 40.5666 26.9992 40.5666C26.6025 40.5666 26.2093 40.5542 25.8193 40.5283C-5.05537 27.2186 22.4274 5.66786 22.7035 5.45152C22.7305 5.44473 22.7587 5.43795 22.7857 5.43117C24.1369 5.10327 25.5478 4.92969 26.9992 4.92969C36.8404 4.92969 44.8177 12.907 44.8177 22.7482Z" fill="#FFDDCF"/>
<path d="M25.8182 40.5309C25.7383 40.5252 25.6582 40.5196 25.5782 40.5128C24.857 40.4554 24.1211 40.3505 23.3785 40.2007C23.3042 40.186 23.2287 40.1703 23.1543 40.1533C23.152 40.1533 23.1498 40.1533 23.1475 40.1522C15.1578 38.3921 9.17969 31.2689 9.17969 22.7508C9.17969 14.6788 14.546 7.86112 21.9057 5.67045C22.1953 5.58372 22.4087 5.52411 22.7051 5.45312C16.9534 12.3711 5.79891 29.2473 25.8182 40.5309Z" fill="#FFCBBE"/>
<path d="M34.7952 28.4656C35.1901 28.2338 35.1432 27.6463 34.7183 27.4755C33.9064 27.1493 32.8067 26.6463 32.3036 26.1431C31.4551 25.2946 30.6066 23.5977 27.2126 23.5977C23.8186 23.5977 22.9702 25.2946 22.1217 26.1431C21.6186 26.6463 20.519 27.1493 19.707 27.4755C19.2821 27.6463 19.2352 28.2338 19.6301 28.4656C20.86 29.1874 23.2748 29.4533 26.4256 28.5584C26.9404 28.4121 27.4846 28.4121 27.9995 28.5584C31.1504 29.4533 33.5652 29.1874 34.7952 28.4656Z" fill="#EFEDFE"/>
<path d="M15.9688 40.7266H21.0597V55.9992H15.9688V40.7266Z" fill="#91D4F2"/>
<path d="M38.0312 56H32.9403V40.7273H38.0312V56Z" fill="#A8E1F6"/>
<path d="M18.4251 25.0303C20.252 25.0303 21.7331 23.8509 21.7331 22.396C21.7331 20.9411 20.252 19.7617 18.4251 19.7617C16.5982 19.7617 15.1172 20.9411 15.1172 22.396C15.1172 23.8509 16.5982 25.0303 18.4251 25.0303Z" fill="#FFA1AC"/>
<path d="M36.3548 25.0303C38.1817 25.0303 39.6627 23.8509 39.6627 22.396C39.6627 20.9411 38.1817 19.7617 36.3548 19.7617C34.5279 19.7617 33.0469 20.9411 33.0469 22.396C33.0469 23.8509 34.5279 25.0303 36.3548 25.0303Z" fill="#FFA1AC"/>
<path d="M20.353 20.7028C19.8861 20.7028 19.5078 20.3243 19.5078 19.8576V18.5053C19.5078 18.0385 19.8863 17.6602 20.353 17.6602C20.8198 17.6602 21.1981 18.0386 21.1981 18.5053V19.8576C21.1982 20.3243 20.8198 20.7028 20.353 20.7028Z" fill="#455059"/>
<path d="M34.4311 20.7028C33.9643 20.7028 33.5859 20.3243 33.5859 19.8576V18.5053C33.5859 18.0385 33.9643 17.6602 34.4311 17.6602C34.8979 17.6602 35.2762 18.0386 35.2762 18.5053V19.8576C35.2762 20.3243 34.8979 20.7028 34.4311 20.7028Z" fill="#455059"/>
<path d="M46.3499 28.1269C45.0946 39.0813 36.9099 46.5876 27.0011 46.5876C24.9614 46.5876 22.9962 46.2699 21.148 45.6692C9.35513 38.1945 18.5618 33.3635 18.5618 33.3635C20.5338 34.1805 22.7888 33.9789 24.6425 32.844C25.3299 32.4237 26.1368 32.1633 27.001 32.1633V32.1825C27.8653 32.1825 28.6723 32.4237 29.3596 32.844C31.4432 34.1196 34.0329 34.2165 36.1593 33.0131C40.5632 30.5215 44.4634 28.0017 44.7984 23.6042L44.7992 23.5859C45.9532 24.795 46.5392 26.4669 46.3499 28.1269Z" fill="#EFEDFE"/>
<path d="M21.1639 45.6717C14.0329 43.3548 8.66553 36.829 7.66824 28.1294C7.47859 26.4402 8.05915 24.7909 9.19764 23.5977C9.48989 27.9326 13.4447 30.5184 17.8587 33.0155C18.0931 33.1485 18.3332 33.2645 18.5776 33.3659C17.6187 36.074 16.6564 41.3084 21.1639 45.6717Z" fill="#DEDEF9"/>
<path d="M34.6344 14.3395C34.5736 14.3395 34.512 14.333 34.4503 14.3192C29.5745 13.2357 24.4201 13.2357 19.5443 14.3192C19.0884 14.4206 18.6371 14.133 18.5359 13.6775C18.4347 13.2218 18.722 12.7703 19.1776 12.669C24.2933 11.5322 29.7014 11.5322 34.8171 12.669C35.2727 12.7703 35.56 13.2218 35.4588 13.6775C35.3712 14.0713 35.0219 14.3394 34.6344 14.3395Z" fill="#FFCBBE"/>
<path d="M32.9358 10.9349C32.875 10.9349 32.8134 10.9284 32.7517 10.9146C27.8564 9.82684 26.1351 9.82673 21.2396 10.9146C20.7835 11.016 20.3325 10.7285 20.2313 10.2729C20.13 9.81722 20.4173 9.36571 20.873 9.26454C26.023 8.12015 27.9684 8.12015 33.1185 9.26454C33.5742 9.36582 33.8615 9.81722 33.7602 10.2729C33.6727 10.6667 33.3233 10.9348 32.9358 10.9349Z" fill="#FFCBBE"/>
</svg>
