<svg width="56" height="72" viewBox="0 0 56 72" fill="none" xmlns="http://www.w3.org/2000/svg">
<path d="M12.0514 8.4375H0.378906V71.9994H47.1825V60.81L12.0514 8.4375Z" fill="#D8F1FB"/>
<path d="M47.1824 60.8094L32.2188 38.502V71.9988H47.1824V60.8094Z" fill="#D6E9F8"/>
<path d="M41.8219 0H8.81641V63.5619H55.62V13.7979L41.8219 0Z" fill="#ECF9FB"/>
<path d="M55.6205 13.7979L41.8225 0H32.2188V63.5619H55.6205V13.7979Z" fill="#D8F1FB"/>
<path d="M17.207 21H47.2293V25.2188H17.207V21Z" fill="#404980"/>
<path d="M17.207 29.4375H47.2293V33.6562H17.207V29.4375Z" fill="#404980"/>
<path d="M17.207 37.875H47.2293V42.0938H17.207V37.875Z" fill="#404980"/>
<path d="M17.207 46.3125H47.2293V50.5312H17.207V46.3125Z" fill="#404980"/>
<path d="M41.8203 0L55.6183 13.7978H41.8203V0Z" fill="#D8F1FB"/>
<path d="M41.8203 0L55.6183 13.7978H41.8203V0Z" fill="#D6E9F8"/>
<path d="M32.2188 21H47.2299V25.2188H32.2188V21Z" fill="#283266"/>
<path d="M32.2188 29.4375H47.2299V33.6562H32.2188V29.4375Z" fill="#283266"/>
<path d="M32.2188 37.875H47.2299V42.0938H32.2188V37.875Z" fill="#283266"/>
<path d="M32.2188 46.3125H47.2299V50.5312H32.2188V46.3125Z" fill="#283266"/>
</svg>
