<svg width="46" height="56" viewBox="0 0 46 56" fill="none" xmlns="http://www.w3.org/2000/svg">
<path d="M36.5352 56.0002H31.1878L30.4572 55.4019L29.6084 56.0002H24.3847C24.3847 56.0002 20.3684 55.3833 17.9108 52.1053V52.1042C17.0916 51.0116 16.4452 49.6225 16.1794 47.8627C15.7758 45.1994 16.2428 41.6852 18.2936 37.0586C19.803 36.6823 21.3802 36.4844 23.0055 36.4844C31.3858 36.4844 38.5334 41.7672 41.2973 49.1861C42.5289 52.487 40.0592 56.0002 36.5352 56.0002Z" fill="#767678"/>
<path d="M24.3825 56.0002H16.4003L15.6467 55.4948L14.8209 56.0002H9.47359C5.94952 56.0002 3.47983 52.487 4.7114 49.1861C6.93937 43.2055 12.0166 38.6128 18.2914 37.0586C18.2487 41.5659 18.9837 50.0152 24.3825 56.0002Z" fill="#666667"/>
<path d="M40.8174 33.0919C43.629 33.0919 45.9083 30.8126 45.9083 28.001C45.9083 25.1894 43.629 22.9102 40.8174 22.9102C38.0058 22.9102 35.7266 25.1894 35.7266 28.001C35.7266 30.8126 38.0058 33.0919 40.8174 33.0919Z" fill="#FFCBBE"/>
<path d="M5.18461 33.0919C7.99621 33.0919 10.2755 30.8126 10.2755 28.001C10.2755 25.1894 7.99621 22.9102 5.18461 22.9102C2.37301 22.9102 0.09375 25.1894 0.09375 28.001C0.09375 30.8126 2.37301 33.0919 5.18461 33.0919Z" fill="#FFDDCF"/>
<path d="M40.8238 27.9982C40.8238 33.946 37.9043 39.2947 33.2545 42.5757C28.6404 45.8275 22.8809 46.6069 17.7575 45.0312C17.7575 45.0312 17.7563 45.0312 17.7552 45.0301C17.5253 44.8948 -3.5702 32.4392 14.8342 13.833C15.7909 12.8662 16.5685 11.9749 17.1837 11.1521C19.0082 10.5222 20.9668 10.1797 23.0053 10.1797C32.8464 10.1797 40.8238 18.157 40.8238 27.9982Z" fill="#FFDDCF"/>
<path d="M17.7582 45.0314C15.8345 44.4387 14.0495 43.5305 12.464 42.3652C11.0903 41.3555 9.86645 40.1531 8.83308 38.7974C7.89552 37.5691 7.11337 36.2157 6.51837 34.7665C5.66087 32.6795 5.1875 30.3941 5.1875 27.9984C5.1875 21.7486 8.40477 16.2516 13.2718 13.0703L14.8348 13.8332C14.835 13.8333 3.59981 29.7835 17.7582 45.0314Z" fill="#FFCBBE"/>
<path d="M23.669 32.7604C26.782 33.4158 29.1684 32.98 30.3771 32.4413C30.7622 32.2697 30.7162 31.8371 30.3019 31.7107C29.5124 31.4698 28.4432 31.0984 27.954 30.7269C27.1289 30.1005 26.304 28.8477 23.0041 28.8477C19.7042 28.8477 18.8792 30.1005 18.0542 30.7269C17.5651 31.0984 16.4957 31.4698 15.7063 31.7107C15.2919 31.8371 15.246 32.2697 15.6311 32.4413C16.8397 32.9798 19.2262 33.4158 22.3392 32.7604C22.774 32.6689 23.2343 32.6689 23.669 32.7604Z" fill="#F9D171"/>
<path d="M42.4293 21.8993C42.3429 22.8069 41.526 23.4491 40.642 23.3266C38.4438 23.0219 34.2025 21.677 29.4221 16.2105C28.8457 15.5513 27.8504 15.4641 27.1668 16.0114C25.1414 17.6331 23.0457 18.9055 20.9789 19.9019C6.00806 10.6397 20.8403 0.120969 20.8403 0.120969C21.5513 0.0415625 22.2737 0 23.0061 0C34.592 0 43.5418 10.2092 42.4293 21.8993Z" fill="#F9D171"/>
<path d="M20.9733 19.9019C14.2645 23.1362 7.85801 23.4709 5.13993 23.4426C4.33908 23.4343 3.66883 22.8144 3.58724 22.0001C3.2356 18.4906 3.77416 14.8003 5.37815 11.3664C8.22146 5.27736 13.9956 0.893937 20.8348 0.121094C19.2503 3.37697 16.5796 11.0717 20.9733 19.9019Z" fill="#F3C23B"/>
<path d="M17.6192 27.8509C17.1524 27.8509 16.7741 27.4726 16.7741 27.0058C16.7741 26.6164 16.4573 26.2997 16.0682 26.2997C15.6788 26.2997 15.3622 26.6164 15.3622 27.0058C15.3622 27.4726 14.9838 27.8509 14.517 27.8509C14.0502 27.8509 13.6719 27.4726 13.6719 27.0058C13.6719 25.6844 14.7469 24.6094 16.0683 24.6094C17.3896 24.6094 18.4646 25.6844 18.4646 27.0058C18.4644 27.4725 18.086 27.8509 17.6192 27.8509Z" fill="#455059"/>
<path d="M31.4865 27.8509C31.0197 27.8509 30.6414 27.4726 30.6414 27.0058C30.6414 26.6164 30.3246 26.2997 29.9355 26.2997C29.5461 26.2997 29.2293 26.6164 29.2293 27.0058C29.2293 27.4726 28.851 27.8509 28.3842 27.8509C27.9174 27.8509 27.5391 27.4726 27.5391 27.0058C27.5391 25.6844 28.6141 24.6094 29.9355 24.6094C31.2568 24.6094 32.3318 25.6844 32.3318 27.0058C32.3317 27.4725 31.9533 27.8509 31.4865 27.8509Z" fill="#455059"/>
<path d="M31.2571 45.3938C31.2571 48.4398 27.58 50.9088 23.0431 50.9088C22.3174 50.9088 21.6132 50.8457 20.9426 50.7263C20.9426 50.7263 14.4257 47.1992 18.4387 40.8265C19.7526 40.2281 21.337 39.8789 23.0431 39.8789C27.58 39.8788 31.2571 42.3478 31.2571 45.3938Z" fill="#FFDDCF"/>
<path d="M20.9426 50.728C17.4234 50.106 14.8281 47.9536 14.8281 45.3955C14.8281 43.4956 16.2604 41.8187 18.4387 40.8281C18.7057 43.7931 19.3852 47.3496 20.9426 50.728Z" fill="#FFCBBE"/>
<path d="M17.8222 52.8396L17.2119 54.9111C17.0643 55.411 16.7635 55.7818 16.3971 55.9983H14.8177C14.6733 55.9119 14.5377 55.7993 14.413 55.6582L9.47145 50.0713C9.0077 49.5463 8.85348 48.7643 9.07879 48.0664L10.761 42.8328C11.2685 41.2557 13.1979 41.1299 13.8618 42.6305L16.1739 47.8608L17.7304 51.3805C17.8321 51.608 17.89 51.853 17.9054 52.1024C17.9207 52.3496 17.8933 52.6 17.8222 52.8396Z" fill="#575757"/>
<path d="M36.5316 50.0713L31.5901 55.6582C31.4654 55.7993 31.3297 55.9119 31.1854 55.9983H29.606C29.2396 55.7818 28.9388 55.411 28.7912 54.9111L28.1808 52.8396C28.0387 52.3583 28.0715 51.8333 28.2727 51.3805L32.1413 42.6305C32.8052 41.1299 34.7346 41.2557 35.2421 42.8328L36.9243 48.0664C37.1496 48.7643 36.9954 49.5463 36.5316 50.0713Z" fill="#666667"/>
<path d="M42.5146 33.9412C41.2592 41.6222 33.0385 46.6683 23.1298 46.6683C20.9255 46.6683 18.7912 46.4182 16.791 45.9449C8.02476 41.2434 14.2374 37.2475 14.2374 37.2475C16.3109 37.9857 18.7732 37.8865 20.7711 37.0301C21.4585 36.736 22.2654 36.5534 23.1298 36.5534V36.5658C23.9941 36.5658 24.8009 36.736 25.4883 37.0301C27.572 37.9237 30.1604 37.9925 32.2869 37.1484C36.6907 35.4017 40.2329 33.5 40.6447 30.4922C41.7986 31.3396 42.7051 32.776 42.5146 33.9412Z" fill="#F9D171"/>
<path d="M16.7911 45.9441C9.80431 44.2909 4.45948 39.9119 3.48353 33.9404C3.4633 33.8165 3.45312 33.6903 3.45312 33.5629C3.45312 32.4878 4.32856 31.2925 5.35975 30.5352C5.71566 33.515 9.55756 35.3963 13.9716 37.1475C14.0594 37.1824 14.1485 37.2151 14.2375 37.2467C13.7203 39.469 13.7777 42.7302 16.7911 45.9441Z" fill="#F3C23B"/>
</svg>
