<svg width="52" height="56" viewBox="0 0 52 56" fill="none" xmlns="http://www.w3.org/2000/svg">
<path d="M7.93981 26.3027C1.03168 12.7268 17.1506 8.48438 17.1506 8.48438L24.0587 11.0299C24.0588 11.0299 9.0912 16.1207 7.93981 26.3027Z" fill="#F1B70B"/>
<path d="M45.0881 32.6926C47.6861 31.6158 48.9192 28.6367 47.8423 26.0387C46.7655 23.4408 43.7864 22.2077 41.1884 23.2845C38.5905 24.3614 37.3573 27.3405 38.4342 29.9384C39.5111 32.5364 42.4901 33.7695 45.0881 32.6926Z" fill="#FFCBBE"/>
<path d="M12.1939 29.9573C13.2708 27.3594 12.0377 24.3803 9.43968 23.3034C6.8417 22.2266 3.86265 23.4597 2.78578 26.0577C1.70891 28.6556 2.94202 31.6347 5.53999 32.7116C8.13797 33.7884 11.117 32.5553 12.1939 29.9573Z" fill="#FFDDCF"/>
<path d="M38.8325 56H38.1767C38.1733 55.9551 38.171 55.9302 38.171 55.9302L25.7808 53.8657L24.3215 54.0978C21.3927 51.2998 17.6739 45.423 23.9745 36.5295C24.4128 36.499 24.8568 36.4844 25.303 36.4844C28.5462 36.4844 31.6047 37.2754 34.2957 38.6773C35.2941 39.1946 36.2431 39.7987 37.131 40.477C40.0339 42.6914 42.2978 45.7024 43.5949 49.1857C44.8265 52.4875 42.3563 56 38.8325 56Z" fill="#FFCBBE"/>
<path d="M25.7779 53.8674L24.3186 54.0995L12.3836 56.0016H11.7706C8.24674 56.0016 5.77661 52.4891 7.00829 49.1874C8.258 45.8326 10.4036 42.915 13.1555 40.7244C14.1336 39.9456 15.1884 39.2594 16.3075 38.679C18.6277 37.4698 21.2219 36.716 23.9715 36.5312C23.5388 40.686 23.3112 47.8678 25.7779 53.8674Z" fill="#FFBBAE"/>
<path d="M38.2178 56.0023H26.8069C23.5772 55.0444 25.3058 52.6092 25.3058 52.6092C25.7013 52.608 26.0969 52.403 26.3042 51.9951C27.6374 49.375 30.3002 41.0112 34.2939 38.6797C35.2923 39.1969 36.2413 39.801 37.1292 40.4793L37.0897 41.7189C36.2299 45.9425 35.583 52.2227 38.1692 55.9325C38.1852 55.9561 38.2009 55.9787 38.2178 56.0023Z" fill="#FF8A98"/>
<path d="M26.8049 56.0024H12.3828C12.3998 55.9788 12.4155 55.9562 12.4313 55.9325C15.0175 52.2227 14.3706 45.9426 13.5108 41.7189L13.1547 40.725C14.1328 39.9463 15.1876 39.26 16.3066 38.6797C20.3004 41.0112 22.9632 49.3751 24.2964 51.9951C24.5059 52.4053 24.9049 52.6103 25.3038 52.6092C25.7061 53.7836 26.2008 54.9241 26.8049 56.0024Z" fill="#FF6E80"/>
<path d="M43.124 27.9983C43.124 30.394 42.6507 32.6794 41.7931 34.7664C39.1291 41.2506 32.7509 45.8168 25.3055 45.8168C23.7053 45.8168 22.1558 45.606 20.6807 45.2105C20.6807 45.2105 20.6796 45.2105 20.6784 45.2094C20.4338 45.1056 -0.748409 36.0612 14.538 13.8004C17.5287 11.5286 21.2599 10.1797 25.3055 10.1797C35.1466 10.1798 43.124 18.1571 43.124 27.9983Z" fill="#FFDDCF"/>
<path d="M20.6782 45.211C15.2882 43.7662 10.9068 39.8582 8.81525 34.7668C7.95775 32.6798 7.48438 30.3944 7.48438 27.9986C7.48438 22.2031 10.2509 17.0541 14.5353 13.8008C11.8242 21.4503 9.02492 35.6842 20.6782 45.211Z" fill="#FFCBBE"/>
<path d="M16.4699 32.4249C18.2697 32.4249 19.7288 31.2629 19.7288 29.8296C19.7288 28.3963 18.2697 27.2344 16.4699 27.2344C14.67 27.2344 13.2109 28.3963 13.2109 29.8296C13.2109 31.2629 14.67 32.4249 16.4699 32.4249Z" fill="#FFA1AC"/>
<path d="M34.1339 32.4249C35.9338 32.4249 37.3929 31.2629 37.3929 29.8296C37.3929 28.3963 35.9338 27.2344 34.1339 27.2344C32.3341 27.2344 30.875 28.3963 30.875 29.8296C30.875 31.2629 32.3341 32.4249 34.1339 32.4249Z" fill="#FFA1AC"/>
<path d="M19.924 27.8509C19.4572 27.8509 19.0789 27.4726 19.0789 27.0058C19.0789 26.6164 18.7621 26.2997 18.3729 26.2997C17.9836 26.2997 17.6668 26.6164 17.6668 27.0058C17.6668 27.4726 17.2884 27.8509 16.8217 27.8509C16.3549 27.8509 15.9766 27.4726 15.9766 27.0058C15.9766 25.6844 17.0516 24.6094 18.373 24.6094C19.6943 24.6094 20.7694 25.6844 20.7694 27.0058C20.7692 27.4725 20.3908 27.8509 19.924 27.8509Z" fill="#455059"/>
<path d="M33.7912 27.8509C33.3244 27.8509 32.9461 27.4726 32.9461 27.0058C32.9461 26.6164 32.6293 26.2997 32.24 26.2997C31.8508 26.2997 31.534 26.6164 31.534 27.0058C31.534 27.4726 31.1556 27.8509 30.6889 27.8509C30.2221 27.8509 29.8438 27.4726 29.8438 27.0058C29.8438 25.6844 30.9188 24.6094 32.2402 24.6094C33.5615 24.6094 34.6366 25.6844 34.6366 27.0058C34.6363 27.4725 34.258 27.8509 33.7912 27.8509Z" fill="#455059"/>
<path d="M25.3031 30.4127C24.4282 30.4127 23.5963 30.0338 23.0205 29.3732C22.7138 29.0212 22.7505 28.4874 23.1025 28.1807C23.4543 27.8741 23.9883 27.9108 24.2949 28.2626C24.5495 28.5548 24.917 28.7224 25.3031 28.7224C25.6892 28.7224 26.0567 28.5549 26.3113 28.2626C26.618 27.9106 27.1518 27.874 27.5037 28.1807C27.8557 28.4873 27.8923 29.0212 27.5856 29.3732C27.0099 30.0338 26.178 30.4127 25.3031 30.4127Z" fill="#455059"/>
<path d="M7.51007 38.6451L10.3365 35.8187C10.5501 35.6051 10.5501 35.2589 10.3365 35.0453L7.51007 32.2188C7.29646 32.0052 6.95029 32.0052 6.73668 32.2188L3.91021 35.0453C3.6966 35.2589 3.6966 35.6051 3.91021 35.8187L6.73668 38.6451C6.95018 38.8586 7.29646 38.8586 7.51007 38.6451Z" fill="#FF6E80"/>
<path d="M7.51038 42.8567L9.28247 41.0846C9.49608 40.871 9.49608 40.5248 9.28247 40.3112L7.51038 38.5391C7.29677 38.3255 6.9506 38.3255 6.73699 38.5391L4.96489 40.3112C4.75129 40.5248 4.75129 40.871 4.96489 41.0846L6.73699 42.8567C6.95049 43.0702 7.29677 43.0702 7.51038 42.8567Z" fill="#91D4F2"/>
<path d="M43.1351 38.6451L40.3086 35.8187C40.095 35.6051 40.095 35.2589 40.3086 35.0453L43.1351 32.2188C43.3487 32.0052 43.6949 32.0052 43.9085 32.2188L46.735 35.0453C46.9486 35.2589 46.9486 35.6051 46.735 35.8187L43.9085 38.6451C43.695 38.8586 43.3487 38.8586 43.1351 38.6451Z" fill="#FF8A98"/>
<path d="M43.1353 42.8606L41.3633 41.0885C41.1497 40.8749 41.1497 40.5287 41.3633 40.3151L43.1354 38.543C43.349 38.3294 43.6952 38.3294 43.9088 38.543L45.6809 40.3151C45.8945 40.5287 45.8945 40.8749 45.6809 41.0885L43.9088 42.8606C43.6952 43.0741 43.3489 43.0741 43.1353 42.8606Z" fill="#A8E1F6"/>
<path d="M50.6472 22.2225C49.5098 23.8546 49.9079 25.3241 49.9079 26.0607C49.9079 28.5038 48.3889 30.486 46.5149 30.486C44.8157 30.486 42.8529 28.74 42.9042 25.8703C42.9414 24.7151 42.5211 23.6007 41.7909 22.813C40.8995 21.8529 40.5751 20.5796 40.5751 19.1788C40.5751 18.8904 40.37 18.6571 40.1209 18.6729C38.1219 18.7925 36.1784 18.0119 34.7986 16.534C33.6131 15.264 31.9724 14.74 30.3778 15.0274C29.0458 15.2684 27.4028 15.3395 25.5942 15.2167C25.2178 15.1909 24.8414 15.1874 24.4662 15.2065C13.3468 9.34194 23.8462 1.18092 24.0637 1.01303C24.066 1.01194 24.0671 1.01084 24.0671 1.01084C25.2909 0.369578 26.7299 0 28.2715 0C30.8476 0 33.1408 1.03108 34.6159 2.63813C35.9873 4.1312 37.8061 4.92789 39.688 4.91673H39.7263C43.3894 4.91673 46.5136 7.88528 46.5136 11.8618C46.5046 12.8805 47.0782 13.7843 47.9199 14.075C51.3611 15.2599 52.6703 19.3198 50.6472 22.2225Z" fill="#F9D171"/>
<path d="M24.4652 15.2065C23.726 15.2411 22.9912 15.3613 22.2712 15.5663C20.5773 16.0486 18.7658 15.4145 17.7817 14.3491C17.4143 13.9931 16.9015 13.9348 16.4699 14.1741C13.1666 16.0147 9.32107 13.2743 9.18336 9.07966C9.11238 6.88614 10.0759 4.94747 11.5521 3.86378C13.5161 2.14638 16.6999 1.62181 19.3627 2.18477C20.7217 2.46936 22.1315 2.24317 23.3294 1.44758C23.5649 1.29161 23.8105 1.14516 24.0663 1.01172C22.4402 4.63313 21.302 9.90259 24.4652 15.2065Z" fill="#F3C23B"/>
</svg>
