<svg width="56" height="56" viewBox="0 0 56 56" fill="none" xmlns="http://www.w3.org/2000/svg">
<g clip-path="url(#clip0_205_178111)">
<path d="M44.9754 42.4259C48.7243 42.4259 51.7633 38.817 51.7633 34.3653C51.7633 29.9135 48.7243 26.3047 44.9754 26.3047C41.2266 26.3047 38.1875 29.9135 38.1875 34.3653C38.1875 38.817 41.2266 42.4259 44.9754 42.4259Z" fill="#EFEDFE"/>
<path d="M11.0301 42.4259C14.779 42.4259 17.818 38.817 17.818 34.3653C17.818 29.9135 14.779 26.3047 11.0301 26.3047C7.28124 26.3047 4.24219 29.9135 4.24219 34.3653C4.24219 38.817 7.28124 42.4259 11.0301 42.4259Z" fill="#DEDEF9"/>
<path d="M52.4764 26.6422C53.1231 23.9065 51.4295 21.1645 48.6938 20.5178C45.958 19.8711 43.216 21.5646 42.5694 24.3004C41.9227 27.0361 43.6162 29.7781 46.352 30.4248C49.0877 31.0715 51.8297 29.378 52.4764 26.6422Z" fill="#FFCBBE"/>
<path d="M42.8097 55.9994H32.3326L32.3315 55.9983C32.209 55.9633 24.3253 53.6237 24.4467 47.7109C24.4872 45.6897 25.4628 43.2495 28.0069 40.3423C28.7976 39.4378 29.3587 38.6153 29.7197 37.8672H39.0909C43.1586 40.3259 46.3337 44.0994 48.0203 48.5925C49.3656 52.1811 46.6651 55.9994 42.8097 55.9994Z" fill="#FF8A98"/>
<path d="M32.3294 55.9994H13.2008C9.34532 55.9994 6.64485 52.1811 7.99125 48.5925C9.67672 44.0994 12.8508 40.327 16.9184 37.8672H23.3398L28.0036 40.3423C28.0036 40.3423 27.9095 41.5422 27.9752 43.3206C28.1053 46.8895 28.8753 52.7881 32.3283 55.9983L32.3294 55.9994Z" fill="#FF6E80"/>
<path d="M36.9305 47.4047C34.4323 49.1142 30.8678 48.2534 28.9702 45.4808C28.5053 44.8016 28.1848 43.9517 28 43.2102V40.3423C28.245 39.4006 28.7273 38.5409 29.4361 37.8672H36.7106C37.1973 38.2609 37.6403 38.7367 38.0177 39.2869C39.9153 42.0595 39.4286 45.6941 36.9305 47.4047Z" fill="#A8E1F6"/>
<path d="M28.0032 40.3423V43.2102C27.9944 43.2463 27.9846 43.2834 27.9747 43.3206C27.7866 44.0348 27.4749 44.8355 27.033 45.4808C26.345 46.4859 25.4383 47.2395 24.443 47.7109C22.6919 48.54 20.6652 48.4941 19.0727 47.4047C16.5746 45.6941 16.0879 42.0595 17.9855 39.2869C18.3629 38.7367 18.8058 38.2609 19.2925 37.8672H26.5671C27.2758 38.5409 27.7582 39.4006 28.0032 40.3423Z" fill="#91D4F2"/>
<path d="M9.66255 30.4002C12.3983 29.7535 14.0918 27.0115 13.4451 24.2757C12.7985 21.54 10.0564 19.8465 7.3207 20.4931C4.58495 21.1398 2.89143 23.8818 3.53811 26.6176C4.18479 29.3533 6.9268 31.0468 9.66255 30.4002Z" fill="#FFDDCF"/>
<path d="M47.5161 25.4551C47.5161 27.8509 46.9977 30.1363 46.0579 32.2232C43.1404 38.7074 36.1547 43.2736 28.0005 43.2736C28.0005 43.2736 -2.55417 38.2195 19.6512 9.34505C22.1823 8.24966 25.013 7.63672 28.0005 7.63672C38.7792 7.63672 47.5161 15.614 47.5161 25.4551Z" fill="#FFDDCF"/>
<path d="M27.9999 43.2724C19.8457 43.2724 12.86 38.7062 9.94256 32.222C9.0027 30.1351 8.48438 27.8497 8.48438 25.4539C8.48438 18.3409 13.0495 12.2005 19.6508 9.34375C16.6803 14.4464 6.1945 35.3075 27.9999 43.2724Z" fill="#FFCBBE"/>
<path d="M19.173 29.878C20.9729 29.878 22.4319 28.7161 22.4319 27.2827C22.4319 25.8494 20.9729 24.6875 19.173 24.6875C17.3731 24.6875 15.9141 25.8494 15.9141 27.2827C15.9141 28.7161 17.3731 29.878 19.173 29.878Z" fill="#FFA1AC"/>
<path d="M36.8371 29.878C38.6369 29.878 40.096 28.7161 40.096 27.2827C40.096 25.8494 38.6369 24.6875 36.8371 24.6875C35.0372 24.6875 33.5781 25.8494 33.5781 27.2827C33.5781 28.7161 35.0372 29.878 36.8371 29.878Z" fill="#FFA1AC"/>
<path d="M22.6192 25.3039C22.1524 25.3039 21.7741 24.9255 21.7741 24.4588C21.7741 24.0695 21.4573 23.7528 21.0681 23.7528C20.6788 23.7528 20.3622 24.0695 20.3622 24.4588C20.3622 24.9256 19.9838 25.3039 19.517 25.3039C19.0502 25.3039 18.6719 24.9255 18.6719 24.4588C18.6719 23.1374 19.7468 22.0625 21.0682 22.0625C22.3895 22.0625 23.4645 23.1374 23.4645 24.4588C23.4645 24.9256 23.086 25.3039 22.6192 25.3039Z" fill="#455059"/>
<path d="M36.4864 25.3039C36.0196 25.3039 35.6413 24.9255 35.6413 24.4588C35.6413 24.0695 35.3245 23.7528 34.9354 23.7528C34.5461 23.7528 34.2293 24.0695 34.2293 24.4588C34.2293 24.9256 33.851 25.3039 33.3842 25.3039C32.9174 25.3039 32.5391 24.9255 32.5391 24.4588C32.5391 23.1374 33.614 22.0625 34.9354 22.0625C36.2567 22.0625 37.3317 23.1374 37.3317 24.4588C37.3315 24.9256 36.9532 25.3039 36.4864 25.3039Z" fill="#455059"/>
<path d="M27.9984 27.8656C27.1237 27.8656 26.2916 27.4867 25.7159 26.8262C25.4092 26.4744 25.4457 25.9405 25.7977 25.6338C26.1496 25.3271 26.6835 25.3638 26.9901 25.7156C27.2448 26.0078 27.6123 26.1753 27.9984 26.1753C28.3846 26.1753 28.752 26.0078 29.0068 25.7156C29.3132 25.3638 29.8473 25.3271 30.1992 25.6338C30.5511 25.9405 30.5877 26.4744 30.281 26.8262C29.7052 27.4867 28.8732 27.8656 27.9984 27.8656Z" fill="#455059"/>
<path d="M52.1968 20.238C48.3875 23.5317 41.4271 22.1903 38.3946 17.6033C37.9247 16.8888 37.1211 16.4572 36.2681 16.5113C33.782 16.6671 31.2104 16.2932 28.9432 15.3348C28.3404 15.079 27.662 15.079 27.059 15.3348C27.0489 15.3393 27.0387 15.3438 27.0286 15.3472C9.27335 12.4883 24.5699 0.413547 24.5699 0.413547C25.4488 0.614141 26.2828 0.882328 27.0593 1.21144C27.6621 1.46606 28.3406 1.46606 28.9435 1.21144C30.7588 0.442859 32.892 0 35.1751 0C40.8467 0 45.5944 2.73273 46.8216 6.39855C47.0492 7.07919 47.5518 7.64039 48.2223 7.89502C54.1176 10.1429 56.3034 16.6845 52.1968 20.238Z" fill="#EFEDFE"/>
<path d="M27.0307 15.3472C24.7537 16.3033 22.1909 16.6651 19.7363 16.5113C18.8833 16.4571 18.0797 16.8887 17.6098 17.6033C17.1636 18.2783 16.6024 18.9206 15.9251 19.5066C12.3461 22.6022 6.92113 22.9301 3.80756 20.238C-0.306474 16.6779 1.89218 10.1409 7.78224 7.89502C8.45271 7.64039 8.95529 7.07919 9.18301 6.39855C10.4101 2.73273 15.1577 0 20.8294 0C22.1365 0 23.3942 0.145359 24.5717 0.413547C23.2263 3.80887 21.5776 10.5579 27.0307 15.3472Z" fill="#DEDEF9"/>
<path d="M28.3481 53.3876C28.7811 53.2081 28.9866 52.7116 28.8071 52.2786C28.6276 51.8456 28.1311 51.6401 27.6981 51.8195C27.2651 51.999 27.0596 52.4956 27.239 52.9286C27.4185 53.3616 27.9151 53.5671 28.3481 53.3876Z" fill="#767678"/>
<path d="M28.8342 49.3403C28.9092 48.8777 28.595 48.442 28.1325 48.367C27.6699 48.292 27.2342 48.6062 27.1592 49.0688C27.0842 49.5313 27.3984 49.967 27.8609 50.042C28.3235 50.117 28.7592 49.8028 28.8342 49.3403Z" fill="#767678"/>
</g>
<defs>
<clipPath id="clip0_205_178111">
<rect width="56" height="56" fill="white"/>
</clipPath>
</defs>
</svg>
