<svg width="72" height="72" viewBox="0 0 72 72" fill="none" xmlns="http://www.w3.org/2000/svg">
<path d="M18.8244 19.3796C10.0428 25.902 8.41398 38.5335 15.1267 48.0549C19.1758 53.7982 25.6223 57.4161 32.4408 57.7722L36.2792 57.9726C48.7701 58.6248 58.9229 49.3681 59.349 36.9389L59.3603 36.6109C59.52 31.9524 58.2086 27.264 55.6107 23.2053L55.224 22.6013C48.6731 12.3668 35.4669 8.72429 25.5182 14.4078L22.1713 16.8937L18.8244 19.3796Z" fill="url(#paint0_linear_205_177582)"/>
<g clip-path="url(#clip0_205_177582)">
<path d="M27.0023 56.9999H34.5588L34.6325 56.6836L35.0364 54.9435L35.4398 56.6836L35.5128 56.9999H43.286C43.3028 56.8932 43.319 56.7878 43.3353 56.6836C43.5619 55.2467 43.7861 54.0504 43.9759 53.7081C44.5265 52.7171 44.0133 53.3379 43.4258 52.7537C42.8383 52.1702 43.4258 52.7537 43.7698 52.0046C44.1145 51.2554 42.2483 45.5625 42.2483 45.5625L29.5178 45.7492C29.5178 45.7492 27.1665 49.8353 27.1422 50.399C27.1284 50.7196 27.0629 53.9537 27.0092 56.6836C27.0067 56.7896 27.0048 56.8957 27.0023 56.9999Z" fill="#2F2E41"/>
<path d="M34.4217 49.5202C34.4217 49.5202 29.0034 51.9961 28.1498 50.0969C27.2962 48.1977 27.7187 45.6591 28.2475 45.3268C28.7764 44.9945 29.3571 43.4637 28.5834 42.4058C27.8098 41.3478 29.0267 39.5605 29.3675 39.378C29.6269 39.239 30.3328 31.4077 30.6548 27.6793C30.7047 27.1029 30.9211 26.5532 31.2783 26.0962C31.6354 25.6392 32.1179 25.2946 32.6676 25.1036L33.9485 23.0489L37.2344 23.0195L38.8759 25.2801L41.245 26.1602L43.0233 33.4549C43.0233 33.4549 43.0405 36.677 42.6667 40.1173C42.5505 41.1877 42.3963 42.2792 42.1921 43.3014C41.7109 45.709 43.8066 47.6916 42.6086 48.1474C39.2672 49.4185 34.4217 49.5202 34.4217 49.5202Z" fill="#E6E6E6"/>
<path d="M41.2294 44.833L30.8057 44.4609C30.7349 44.4609 30.6647 44.4748 30.5993 44.5017C30.5339 44.5286 30.4745 44.5681 30.4244 44.6178C30.3743 44.6675 30.3346 44.7266 30.3075 44.7916C30.2804 44.8566 30.2664 44.9262 30.2664 44.9965V50.1881C30.2664 50.2584 30.2804 50.3281 30.3075 50.393C30.3346 50.458 30.3743 50.5171 30.4244 50.5668C30.4745 50.6165 30.5339 50.656 30.5993 50.6829C30.6647 50.7098 30.7349 50.7237 30.8057 50.7237H40.6051C40.6759 50.7237 40.746 50.7098 40.8114 50.6829C40.8768 50.656 40.9363 50.6165 40.9864 50.5668C41.0364 50.5171 41.0762 50.458 41.1033 50.393C41.1304 50.3281 41.1443 50.2584 41.1443 50.1881C41.7221 48.7254 42.2055 47.3016 41.7687 45.3686C41.7687 45.2266 41.7118 45.0903 41.6107 44.9899C41.5096 44.8895 41.3724 44.833 41.2294 44.833Z" fill="#3F3D56"/>
<path d="M31.4852 45.4688H40.0625V45.5928H31.4852V45.4688Z" fill="#2F2E41"/>
<path d="M31.4852 47.2617H40.0625V47.5273H31.4852V47.2617Z" fill="#2F2E41"/>
<path d="M32.1952 41.6641H40.0625V45.4771H32.1952V41.6641Z" fill="#F9A826"/>
<path opacity="0.2" d="M32.1952 41.6641H40.0625V45.4771H32.1952V41.6641Z" fill="black"/>
<path d="M32.1907 41.6641H37.6172V45.4771H32.1907V41.6641Z" fill="#F9A826"/>
<path d="M33.0398 42.3002H34.1114C34.1212 42.3002 34.1306 42.2963 34.1376 42.2894C34.1445 42.2825 34.1484 42.2732 34.1484 42.2634C34.1484 42.2536 34.1445 42.2443 34.1376 42.2374C34.1306 42.2304 34.1212 42.2266 34.1114 42.2266H33.0398C33.03 42.2266 33.0205 42.2304 33.0136 42.2374C33.0066 42.2443 33.0027 42.2536 33.0027 42.2634C33.0027 42.2732 33.0066 42.2825 33.0136 42.2894C33.0205 42.2963 33.03 42.3002 33.0398 42.3002Z" fill="white"/>
<path d="M38.329 44.9604H39.4006C39.4104 44.9603 39.4198 44.9564 39.4267 44.9495C39.4336 44.9426 39.4375 44.9333 39.4375 44.9235C39.4375 44.9138 39.4336 44.9045 39.4267 44.8976C39.4198 44.8907 39.4104 44.8868 39.4006 44.8867H38.329C38.3192 44.8867 38.3097 44.8906 38.3028 44.8975C38.2958 44.9044 38.2919 44.9138 38.2919 44.9235C38.2919 44.9333 38.2958 44.9427 38.3028 44.9496C38.3097 44.9565 38.3192 44.9604 38.329 44.9604Z" fill="white"/>
<path d="M36.2653 42.2985H39.5623C39.5713 42.2987 39.5801 42.2957 39.5872 42.2901C39.5942 42.2846 39.5991 42.2767 39.6009 42.2679C39.6019 42.2627 39.6017 42.2573 39.6003 42.2522C39.5989 42.2471 39.5964 42.2423 39.5929 42.2383C39.5893 42.2343 39.5849 42.2312 39.58 42.2292C39.575 42.2272 39.5697 42.2263 39.5644 42.2266H36.2477C36.2403 42.2307 36.2344 42.2371 36.231 42.2448C36.2276 42.2525 36.2268 42.2611 36.2288 42.2693C36.2308 42.2774 36.2355 42.2847 36.2421 42.29C36.2487 42.2953 36.2568 42.2983 36.2653 42.2985Z" fill="white"/>
<path d="M30.9806 50.6651L37.6401 52.132C37.853 52.132 38.0572 52.048 38.2077 51.8985C38.3582 51.749 38.4428 51.5462 38.4428 51.3347C39.0968 49.6728 39.1079 48.115 38.4428 46.6666C38.4428 46.4552 38.3582 46.2524 38.2077 46.1028C38.0572 45.9533 37.853 45.8693 37.6401 45.8693L30.9806 44.4023C30.7677 44.4023 30.5636 44.4863 30.413 44.6359C30.2625 44.7854 30.1779 44.9882 30.1779 45.1997C29.5625 46.9431 29.0536 48.6541 30.1779 49.8678C30.1779 50.0792 30.2625 50.282 30.413 50.4316C30.5636 50.5811 30.7677 50.6651 30.9806 50.6651Z" fill="#2F2E41"/>
<path d="M36.9922 46.8602L36.907 47.3829L32.5615 47.2704C32.5469 46.9967 34.5207 46.7918 36.6137 46.8497L36.9922 46.8602Z" fill="#3F3D56"/>
<path d="M36.9922 48.1649L36.907 48.6876L32.5615 48.5751C32.5469 48.3014 34.5207 48.0964 36.6137 48.1544L36.9922 48.1649Z" fill="#3F3D56"/>
<path d="M36.9922 49.7117L36.907 50.2345L32.5615 50.122C32.5469 49.8482 34.5207 49.6433 36.6137 49.7013L36.9922 49.7117Z" fill="#3F3D56"/>
<path d="M29.3515 39.0273L29.4739 40.1944L29.5026 40.4643L29.5466 40.8976L30.4919 49.9049C30.4138 50.1647 30.4245 50.443 30.5225 50.6961C30.6205 50.9492 30.8002 51.1629 31.0335 51.3038C31.303 51.4634 31.6253 51.5103 31.9295 51.434C32.2338 51.3577 32.4951 51.1646 32.6561 50.8971C32.6619 50.8876 32.6657 50.8781 32.6715 50.8686C32.8321 50.5902 32.8773 50.2606 32.7972 49.9497C32.7172 49.6388 32.5183 49.3711 32.2428 49.2036C32.1858 49.1711 32.1263 49.1431 32.0649 49.1199L32.0725 48.8671L32.0955 48.0746L32.1127 47.4758L32.1491 46.2841L32.1625 45.8223L32.2065 44.3245L32.2486 42.88L32.3002 41.1295L32.3404 39.7838L31.8525 39.6603L29.3515 39.0273Z" fill="#A0616A"/>
<path d="M28.4076 37.5034C28.4516 37.7262 28.4918 37.8702 28.5204 37.9164C28.7673 38.3003 28.9185 37.7639 28.7826 38.7922C28.6735 39.6268 29.328 39.5222 29.0926 39.7005C28.7042 39.9953 29.2399 40.1255 29.4753 40.2849C29.5806 40.3552 29.2891 40.3385 29.1686 40.4361C29.1112 40.4808 29.3836 40.6098 29.3165 40.6379C29.0601 40.7579 29.2074 40.8487 29.548 40.919C30.1125 41.0338 31.2052 41.0904 31.8653 41.1126C32.0529 41.1212 32.206 41.1246 32.3016 41.1281C32.3724 41.1298 32.4126 41.1298 32.4126 41.1298C32.4126 41.1298 32.5791 41.0235 32.648 40.6996C32.6977 40.4734 32.6977 40.1392 32.56 39.6594C32.4758 39.3646 32.3323 39.1538 32.2481 38.9841C32.1992 38.905 32.1765 38.8128 32.183 38.7202V38.7185C32.1964 38.6311 32.2595 38.5505 32.4031 38.4648C32.6614 38.3106 32.5179 37.9867 32.3169 37.6816C32.1256 37.3954 31.8845 37.1229 31.8845 37.0236C31.8845 36.8128 33.4766 32.3329 33.4766 32.3329L32.891 25.5686C32.4444 25.2641 31.9023 25.1296 31.364 25.1899C30.9947 25.2378 30.5833 25.3921 30.1604 25.7383C29.7911 26.0416 29.4122 26.494 29.0486 27.1487C27.5024 29.9302 28.0784 35.8616 28.4076 37.5034Z" fill="#E6E6E6"/>
<path d="M36.1293 22.2539C34.2419 22.2539 32.7118 20.7341 32.7118 18.8594C32.7118 16.9846 34.2419 15.4648 36.1293 15.4648C38.0168 15.4648 39.5469 16.9846 39.5469 18.8594C39.5469 20.7341 38.0168 22.2539 36.1293 22.2539Z" fill="#A0616A"/>
<path d="M32.5685 20.5864C32.5685 20.5864 33.5168 21.3555 34.0367 21.5799C33.8928 21.0833 33.7428 20.2307 33.5992 19.7355C33.5246 19.4749 33.4483 19.2087 33.4605 18.9394C33.4736 18.6682 33.5905 18.3883 33.8219 18.2478C33.9342 18.1793 34.0653 18.1477 34.1967 18.1574C34.3281 18.1671 34.4531 18.2176 34.554 18.3017C34.6549 18.3859 34.7266 18.4995 34.7589 18.6263C34.7912 18.7532 34.7825 18.887 34.734 19.0087C34.9605 18.9933 35.0885 18.7363 35.1162 18.5116C35.1439 18.2868 35.1229 18.042 35.248 17.8515C35.3685 17.6668 35.6064 17.5826 35.8293 17.5927C36.0504 17.6018 36.2604 17.692 36.4584 17.7946C37.0248 18.0856 37.5392 18.4873 38.1485 18.6793C38.2708 18.7179 38.3964 18.7451 38.5237 18.7604C38.5192 18.3944 38.6414 18.038 38.8697 17.7506C38.9028 18.0916 38.9996 18.4235 39.1551 18.7293C39.4489 18.6726 39.71 18.5069 39.8852 18.2658C40.076 17.9914 40.1229 17.6376 40.078 17.3076C40.0562 17.1561 40.0191 17.0071 39.9671 16.863C39.8774 16.8416 39.7901 16.8115 39.7064 16.7731C39.5217 16.6927 39.3548 16.5769 39.2153 16.4322C39.4038 16.4401 39.5926 16.4268 39.7781 16.3926C39.7735 16.3816 39.7693 16.3721 39.7647 16.3611C39.6585 16.1307 39.5409 15.8927 39.3359 15.7431C39.1308 15.5936 38.8131 15.5638 38.635 15.7461C38.172 15.0233 37.4388 14.5128 36.5969 14.327C35.7549 14.1411 34.8731 14.295 34.1454 14.755C34.1292 14.7652 34.113 14.7756 34.097 14.7861C34.2297 14.9366 34.3316 15.1115 34.3968 15.3008C34.1949 15.1977 33.9805 15.1209 33.7588 15.0724C33.6027 15.2455 33.504 15.4532 33.5463 15.6753C33.2875 15.8004 32.7828 16.0089 33.0214 16.1462C32.402 16.6969 32.0122 17.4576 31.9284 18.2791C31.8446 19.1005 32.0729 19.9234 32.5685 20.5864L32.5685 20.5864Z" fill="#2F2E41"/>
<path d="M36.8113 43.9046C36.8315 44.2157 36.9753 44.5061 37.2109 44.712C37.4465 44.9179 37.7548 45.0225 38.0681 45.0028C38.0787 45.0008 38.0894 44.9995 38.1002 44.9988C38.4223 44.9725 38.7214 44.8226 38.934 44.5809C39.1467 44.3392 39.2562 44.0246 39.2393 43.7041C39.2333 43.6392 39.2226 43.5748 39.2072 43.5115L39.4211 43.3747L40.0922 42.9432L40.5976 42.6191L41.607 41.9724L41.9974 41.7228L42.0495 41.6896L43.2648 40.9087L44.2408 40.2833L44.3237 40.2301L44.4868 40.1252L45.9682 39.1757L46.3666 38.9208C46.3679 38.9194 46.3666 38.9194 46.3666 38.9194C46.38 38.8942 45.5417 38.4812 45.5551 38.456C45.7663 38.0403 46.0337 37.6911 45.6888 36.1984L46.0404 35.5703L45.1419 36.3326L44.9347 36.5092L44.6005 36.7907L40.4666 40.2939L37.6643 42.6683C37.4046 42.7519 37.1801 42.9185 37.0258 43.1421C36.8715 43.3658 36.7961 43.6339 36.8113 43.9046Z" fill="#A0616A"/>
<path d="M37.566 31.0332L42.2012 38.1126L40.3388 40.1802L40.4645 40.2918L42.0475 41.6875L42.4953 42.0819L43.3243 41.9145C43.3243 41.9145 43.4887 41.6662 44.3537 41.5387C45.2187 41.4112 44.7147 41.1191 44.3323 40.5481C44.2414 40.4113 44.5944 40.6264 44.6171 40.5786C44.6278 40.5494 44.8417 40.4525 44.8845 40.4458C45.061 40.4126 44.8885 40.313 45.1425 40.2612C45.5503 40.1789 45.5744 40.4657 46.3645 38.9187C46.3658 38.9173 46.3645 38.9173 46.3645 38.9173C46.3779 38.8921 46.3899 38.8682 46.4033 38.843C46.6145 38.4273 46.4621 37.272 46.1172 35.7794C45.5904 33.5032 44.6171 30.4436 43.8069 28.0387C43.6492 27.5716 43.3932 27.1432 43.0559 26.782C42.7187 26.4209 42.3078 26.1352 41.8507 25.9439C41.3936 25.7527 40.9008 25.6604 40.405 25.673C39.9092 25.6857 39.4218 25.8031 38.9752 26.0173C38.5286 26.2316 38.133 26.5379 37.8149 26.9158C37.4967 27.2937 37.2632 27.7346 37.1299 28.2091C36.9966 28.6836 36.9665 29.1809 37.0417 29.6678C37.1169 30.1548 37.2956 30.6202 37.566 31.0332L37.566 31.0332Z" fill="#E6E6E6"/>
<path d="M35.7205 49.2047C35.7013 49.208 35.6815 49.2054 35.6639 49.1971C35.6463 49.1889 35.6316 49.1755 35.6219 49.1587C35.6122 49.1419 35.6079 49.1226 35.6097 49.1033C35.6114 49.0841 35.6191 49.0658 35.6316 49.051L35.6348 49.0247L35.6315 49.0189C35.6063 48.9757 35.5688 48.9409 35.5237 48.9188C35.4786 48.8967 35.4279 48.8883 35.3781 48.8947C35.3282 48.9011 35.2814 48.922 35.2434 48.9548C35.2055 48.9876 35.1782 49.0308 35.1649 49.0789C35.1116 49.2711 35.0376 49.4662 35.0381 49.6624C35.0383 49.7491 35.0538 49.835 35.0836 49.9165C34.8551 49.5503 34.7085 49.1396 34.6538 48.7122C34.6402 48.605 34.6326 48.497 34.6311 48.3889C34.63 48.3003 34.6328 48.2118 34.6395 48.1234C34.6764 47.644 34.8273 47.1801 35.0798 46.7699C35.2149 46.6732 35.3169 46.5376 35.3721 46.3815C35.3921 46.3254 35.4039 46.2667 35.407 46.2072C35.3909 46.2114 35.3142 45.9695 35.3246 45.9528C35.2975 45.9213 35.2545 45.9093 35.2254 45.8789C35.0804 45.7275 34.9134 45.778 34.853 46.0158C34.6748 46.1349 34.693 46.2934 34.829 46.431C34.9156 46.5185 34.9424 46.6482 35.0207 46.7437C35.015 46.7531 35.0091 46.7622 35.0035 46.7716C34.9007 46.9434 34.8151 47.1249 34.748 47.3134C34.7447 47.1121 34.6932 46.9144 34.598 46.7367C34.5033 46.5718 34.3487 46.4423 34.2098 46.3068C34.173 46.2704 34.1262 46.2456 34.0752 46.2356C34.0242 46.2256 33.9714 46.2309 33.9234 46.2507C33.8754 46.2705 33.8344 46.304 33.8056 46.347C33.7767 46.3899 33.7614 46.4404 33.7615 46.492L33.7616 46.4988C33.7806 46.5065 33.7994 46.5149 33.8179 46.524C33.8411 46.5355 33.8603 46.5538 33.8729 46.5763C33.8855 46.5989 33.8909 46.6247 33.8885 46.6503C33.8861 46.676 33.8759 46.7004 33.8594 46.7202C33.8428 46.74 33.8205 46.7544 33.7956 46.7615L33.793 46.7622C33.8074 46.8252 33.8266 46.8869 33.8505 46.947C33.7715 47.5567 34.1306 47.7303 34.6058 47.6808C34.6169 47.6848 34.6278 47.6889 34.6389 47.6926C34.5809 47.9572 34.5579 48.2281 34.5703 48.4985C34.5781 48.658 34.599 48.8166 34.6325 48.9728L34.631 48.9673C34.5745 48.796 34.4601 48.6494 34.3074 48.5522C34.0807 48.4103 33.7828 48.3848 33.5441 48.2778C33.5187 48.2657 33.4903 48.2611 33.4623 48.2645C33.4343 48.2679 33.4079 48.2793 33.3861 48.2971C33.3644 48.315 33.3482 48.3386 33.3396 48.3653C33.3309 48.392 33.3302 48.4205 33.3373 48.4476L33.339 48.4534C33.3737 48.4626 33.4078 48.474 33.4411 48.4875C33.4602 48.4952 33.4789 48.5036 33.4974 48.5127C33.5206 48.5242 33.5398 48.5425 33.5524 48.565C33.565 48.5875 33.5704 48.6133 33.568 48.639C33.5656 48.6647 33.5555 48.689 33.5389 48.7089C33.5223 48.7287 33.5001 48.7431 33.4751 48.7502L33.4726 48.7509L33.4673 48.7524C33.5407 48.8792 33.6355 48.9925 33.7476 49.0874C33.909 49.5909 34.328 49.5882 34.7507 49.3829L34.7509 49.3829C34.8259 49.586 34.9218 49.7808 35.0373 49.9642L35.7857 49.8707C35.7874 49.8621 35.7887 49.8533 35.7901 49.8448C35.7213 49.8577 35.6513 49.8623 35.5814 49.8584C35.6284 49.7838 35.6753 49.7086 35.7222 49.634C35.7233 49.6326 35.7243 49.6311 35.7252 49.6296C35.749 49.5914 35.7731 49.5535 35.7969 49.5153L35.7969 49.5153C35.7849 49.4089 35.7593 49.3046 35.7205 49.2047L35.7205 49.2047Z" fill="#F2F2F2"/>
</g>
<defs>
<linearGradient id="paint0_linear_205_177582" x1="8.60883" y1="29.3013" x2="65.1916" y2="42.3423" gradientUnits="userSpaceOnUse">
<stop stop-color="#B1C0FF"/>
<stop offset="0.96875" stop-color="#F8D586"/>
</linearGradient>
<clipPath id="clip0_205_177582">
<rect width="19.5" height="42.75" fill="white" transform="matrix(-1 0 0 1 46.5 14.25)"/>
</clipPath>
</defs>
</svg>
