<svg width="56" height="56" viewBox="0 0 56 56" fill="none" xmlns="http://www.w3.org/2000/svg">
<g clip-path="url(#clip0_205_178055)">
<path d="M50.0544 43.5305C49.9215 46.6611 47.3048 49.1752 44.1463 49.2134C42.7703 49.2292 41.5012 48.7863 40.4821 48.0279C37.1598 50.8023 32.6583 52.5085 28 52.6054V26.2305H46.2982C46.2891 26.2553 46.2801 26.2789 46.271 26.3037C47.0618 28.4177 47.4947 30.7042 47.4947 33.0922C47.4947 33.214 47.4936 33.3345 47.4913 33.4562C47.447 35.861 48.0526 38.2264 49.2637 40.31C49.81 41.2508 50.1044 42.3552 50.0544 43.5305Z" fill="#767678"/>
<path d="M28.0052 52.6055C23.2779 52.5717 18.8053 50.8577 15.4448 48.028C14.434 48.7864 13.1753 49.2293 11.8106 49.2135C8.67779 49.1753 6.08265 46.6612 5.95074 43.5306C5.90119 42.3553 6.19301 41.2509 6.73507 40.31C7.93633 38.2264 8.53702 35.861 8.49305 33.4562C8.49076 33.3345 8.48966 33.214 8.48966 33.0922C8.48966 30.7043 8.91896 28.4179 9.70329 26.3037C9.69432 26.2789 9.68524 26.2553 9.67627 26.2305L28.0052 26.3083V52.6055Z" fill="#666667"/>
<path d="M41.5329 55.9999H35.0329C35.0329 55.9999 9.91205 50.0623 27.8669 36.4855C27.912 36.4844 27.9583 36.4844 28.0033 36.4844C30.5208 36.4844 32.9267 36.961 35.1365 37.8299C40.282 39.8516 44.3613 43.9963 46.2951 49.1857C47.5268 52.4874 45.0566 55.9999 41.5329 55.9999Z" fill="#A8E1F6"/>
<path d="M35.0327 55.999H14.4737C10.9499 55.999 8.47974 52.4864 9.71141 49.1846C11.6452 43.9952 15.7245 39.8505 20.87 37.8288C23.0404 36.9758 25.399 36.5002 27.8669 36.4844C27.4409 39.9328 26.6183 51.9162 35.0327 55.999Z" fill="#91D4F2"/>
<path d="M36.4855 42.4242C36.4855 46.5137 33.5917 49.9282 29.7388 50.7295C29.7388 50.7295 18.8958 45.7362 27.8648 36.4855C27.9099 36.4844 27.9561 36.4844 28.0012 36.4844C30.5187 36.4844 32.9246 36.961 35.1344 37.8299C35.9896 39.154 36.4855 40.7316 36.4855 42.4242Z" fill="#FFCBBE"/>
<path d="M29.7377 50.7285C29.1776 50.8457 28.5962 50.9077 28.0001 50.9077C23.3144 50.9077 19.5156 47.1088 19.5156 42.4232C19.5156 40.7306 20.0114 39.1529 20.8667 37.8288C23.0372 36.9758 25.3957 36.5002 27.8637 36.4844C27.564 38.9129 27.067 45.574 29.7377 50.7285Z" fill="#FFBBAE"/>
<path d="M45.8175 33.0921C48.6292 33.0921 50.9085 30.8128 50.9085 28.0011C50.9085 25.1895 48.6292 22.9102 45.8175 22.9102C43.0059 22.9102 40.7266 25.1895 40.7266 28.0011C40.7266 30.8128 43.0059 33.0921 45.8175 33.0921Z" fill="#FFCBBE"/>
<path d="M10.1847 33.0921C12.9964 33.0921 15.2757 30.8128 15.2757 28.0011C15.2757 25.1895 12.9964 22.9102 10.1847 22.9102C7.37305 22.9102 5.09375 25.1895 5.09375 28.0011C5.09375 30.8128 7.37305 33.0921 10.1847 33.0921Z" fill="#FFDDCF"/>
<path d="M45.8219 27.9982C45.8219 30.3939 45.3487 32.6793 44.491 34.7663C41.8271 41.2505 35.4488 45.8167 28.0034 45.8167C28.0034 45.8167 0.195044 40.5722 19.8661 12.1428C19.8661 12.1417 19.8672 12.1417 19.8672 12.1405C22.3069 10.8873 25.0724 10.1797 28.0034 10.1797C37.8447 10.1797 45.8219 18.157 45.8219 27.9982Z" fill="#FFDDCF"/>
<path d="M28.006 45.8185C20.5606 45.8185 14.1823 41.2523 11.5184 34.7681C10.6608 32.6811 10.1875 30.3957 10.1875 28C10.1875 21.0899 14.1204 15.0993 19.8687 12.1445C16.4125 18.2286 7.94608 36.8867 28.006 45.8185Z" fill="#FFCBBE"/>
<path d="M19.173 32.4249C20.9729 32.4249 22.4319 31.2629 22.4319 29.8296C22.4319 28.3963 20.9729 27.2344 19.173 27.2344C17.3731 27.2344 15.9141 28.3963 15.9141 29.8296C15.9141 31.2629 17.3731 32.4249 19.173 32.4249Z" fill="#FFA1AC"/>
<path d="M36.8371 32.4249C38.6369 32.4249 40.096 31.2629 40.096 29.8296C40.096 28.3963 38.6369 27.2344 36.8371 27.2344C35.0372 27.2344 33.5781 28.3963 33.5781 29.8296C33.5781 31.2629 35.0372 32.4249 36.8371 32.4249Z" fill="#FFA1AC"/>
<path d="M22.6193 27.8508C22.1525 27.8508 21.7742 27.4724 21.7742 27.0057C21.7742 26.6164 21.4574 26.2997 21.0682 26.2997C20.6789 26.2997 20.3622 26.6163 20.3622 27.0057C20.3622 27.4725 19.9837 27.8508 19.517 27.8508C19.0503 27.8508 18.6719 27.4724 18.6719 27.0057C18.6719 25.6843 19.7469 24.6094 21.0683 24.6094C22.3896 24.6094 23.4647 25.6843 23.4647 27.0057C23.4646 27.4725 23.0861 27.8508 22.6193 27.8508Z" fill="#455059"/>
<path d="M36.4865 27.8508C36.0197 27.8508 35.6414 27.4724 35.6414 27.0057C35.6414 26.6164 35.3246 26.2997 34.9354 26.2997C34.5461 26.2997 34.2293 26.6163 34.2293 27.0057C34.2293 27.4725 33.8509 27.8508 33.3842 27.8508C32.9175 27.8508 32.5391 27.4724 32.5391 27.0057C32.5391 25.6843 33.6141 24.6094 34.9355 24.6094C36.2568 24.6094 37.3319 25.6843 37.3319 27.0057C37.3318 27.4725 36.9533 27.8508 36.4865 27.8508Z" fill="#455059"/>
<path d="M28.0062 30.4126C27.1313 30.4126 26.2993 30.0337 25.7237 29.3731C25.417 29.0212 25.4536 28.4874 25.8056 28.1807C26.1575 27.874 26.6913 27.9106 26.9981 28.2626C27.2527 28.5548 27.6202 28.7223 28.0063 28.7223C28.3924 28.7223 28.7599 28.5548 29.0145 28.2626C29.3212 27.9106 29.8551 27.874 30.207 28.1807C30.5589 28.4874 30.5955 29.0212 30.289 29.3731C29.7131 30.0337 28.8811 30.4126 28.0062 30.4126Z" fill="#455059"/>
<path d="M47.516 20.1129C47.516 20.8825 47.4743 21.642 47.3921 22.3881C47.3166 23.0755 46.7317 23.5984 46.041 23.5702C45.611 23.4269 40.5605 23.43 34.4195 16.3499C33.8404 15.6824 32.8366 15.6008 32.1487 16.1556C29.9263 17.9479 27.619 19.3165 25.3578 20.3597C7.74453 14.4321 24.5994 0.307679 24.5994 0.307679C25.7005 0.105991 26.8319 0.0011004 27.9869 6.64961e-06C30.75 -0.00229023 33.3802 0.590522 35.7636 1.65649C36.4499 1.16408 37.2826 0.87446 38.1818 0.87446C40.5247 0.87446 42.4246 2.83183 42.4246 5.24683C44.7674 5.24683 46.6674 7.20421 46.6674 9.61812C46.6674 10.5455 46.3868 11.4054 45.909 12.112C46.9424 14.5641 47.516 17.2686 47.516 20.1129Z" fill="#767678"/>
<path d="M25.3575 20.3606C17.2997 24.0786 10.2047 23.5591 9.92018 23.5836C9.24512 23.5836 8.68282 23.0742 8.60965 22.4038C8.22935 18.9328 8.71181 15.4049 10.0994 12.1243C9.6171 11.4154 9.33316 10.5522 9.33316 9.61914C9.33316 7.20534 11.2331 5.24786 13.5759 5.24786C13.5759 2.83297 15.4759 0.875484 17.8187 0.875484C18.7225 0.875484 19.5597 1.1685 20.2482 1.66539C21.6242 1.04677 23.0824 0.586953 24.5992 0.308594C22.2428 4.45456 19.0356 12.7767 25.3575 20.3606Z" fill="#666667"/>
<path d="M49.3649 34.2896C50.0275 33.627 50.0275 32.5527 49.3649 31.8901C48.7023 31.2275 47.628 31.2275 46.9654 31.8901C46.3028 32.5527 46.3028 33.627 46.9654 34.2896C47.628 34.9522 48.7023 34.9522 49.3649 34.2896Z" fill="#EFEDFE"/>
<path d="M8.5418 34.5425C9.33936 34.0495 9.58628 33.0033 9.09331 32.2058C8.60034 31.4082 7.55417 31.1613 6.75661 31.6543C5.95905 32.1472 5.71213 33.1934 6.2051 33.991C6.69806 34.7885 7.74424 35.0355 8.5418 34.5425Z" fill="#EFEDFE"/>
</g>
<defs>
<clipPath id="clip0_205_178055">
<rect width="56" height="56" fill="white"/>
</clipPath>
</defs>
</svg>
