<svg width="188" height="72" viewBox="0 0 188 72" fill="none" xmlns="http://www.w3.org/2000/svg">
<g clip-path="url(#clip0_205_199603)">
<path d="M125.454 17.9262C128.947 17.9262 132.236 17.9581 135.524 17.8751C135.845 17.8656 136.346 17.1761 136.424 16.7421C136.895 14.0897 137.197 11.4087 137.701 8.75951C138.088 6.71361 139.982 5.51351 141.866 5.93163C143.715 6.34018 144.96 7.92647 144.693 9.80641C143.465 18.4369 142.204 27.0641 140.908 35.685C140.615 37.6384 138.809 38.9598 136.996 38.7332C134.991 38.4842 133.646 36.9266 133.863 34.8105C134.136 32.1326 134.604 29.4739 134.981 26.8056C135.059 26.2439 135.114 25.6789 135.196 25.0055H124.431C123.979 28.0408 123.537 31.0123 123.092 33.987C123.007 34.5615 122.923 35.1392 122.809 35.7074C122.403 37.6863 120.733 38.9725 118.9 38.7268C116.857 38.4555 115.463 36.6936 115.758 34.6254C116.515 29.3431 117.315 24.0671 118.098 18.788C118.572 15.5994 119.034 12.4109 119.531 9.22551C119.885 6.9498 121.627 5.5582 123.635 5.89333C125.721 6.24123 126.926 7.9935 126.604 10.266C126.257 12.7237 125.873 15.1749 125.461 17.9198L125.454 17.9262Z" fill="white"/>
<path d="M53.6866 28.2409C54.5802 30.0219 55.4283 31.6688 56.2373 33.3317C57.2511 35.4128 56.7215 37.3023 54.8986 38.2183C53.079 39.1311 51.1522 38.4066 50.0799 36.3416C48.6892 33.6573 47.3342 30.9539 45.976 28.2537C44.5203 25.3588 45.5894 23.2778 48.8159 22.6937C51.7371 22.167 52.8223 20.402 51.919 17.6124C51.4869 16.2719 50.5641 15.5027 49.1084 15.3431C44.7705 14.8643 44.7543 14.8739 44.0687 19.0487C43.2044 24.3119 42.3726 29.5846 41.4498 34.8382C41.284 35.7862 40.9169 36.8235 40.306 37.548C39.315 38.7258 37.8788 38.8566 36.4556 38.2406C35.0226 37.6214 34.2688 36.0862 34.5385 34.4042C35.2858 29.7634 36.0494 25.1226 36.8162 20.485C37.2971 17.5677 37.7845 14.6473 38.2914 11.7332C38.6586 9.63307 39.7601 8.66278 41.8982 8.62767C44.3319 8.58937 46.7689 8.57022 49.2026 8.64363C53.7386 8.78407 57.2219 11.4556 58.5216 15.6942C60.0033 20.5329 58.6938 24.7875 54.9084 27.4174C54.5607 27.66 54.2033 27.893 53.6899 28.2409H53.6866Z" fill="white"/>
<path d="M95.6366 0.00389912C101.268 0.121994 106.038 2.1679 109.937 6.13842C111.548 7.77898 111.649 9.8185 110.21 11.2069C108.77 12.5985 106.726 12.4549 105.047 10.8431C98.1938 4.27126 87.952 5.75542 83.6759 13.9422C81.0114 19.0426 82.4769 25.5634 87.1299 29.2913C87.4646 29.5594 87.8252 29.7956 88.1632 30.0573C89.8885 31.3947 90.2752 33.3799 89.1185 34.9279C87.9422 36.5014 85.9179 36.7153 84.0918 35.4514C79.5493 32.3075 76.7614 28.0593 75.7703 22.7067C73.5803 10.875 83.312 -0.238673 95.6366 0.00389912Z" fill="white"/>
<path d="M153.677 17.8854C152.283 17.8854 151.1 17.9141 149.921 17.879C147.916 17.8183 146.571 16.5831 146.503 14.7894C146.434 12.9669 147.65 11.4795 149.629 11.4476C155.25 11.3519 160.874 11.3519 166.496 11.4412C168.491 11.4732 169.703 12.9286 169.648 14.7607C169.596 16.5736 168.276 17.8279 166.268 17.8758C164.387 17.9205 162.499 17.8854 160.481 17.8854C159.919 21.6548 159.376 25.2966 158.837 28.9416C158.506 31.1885 158.207 33.4387 157.84 35.6793C157.515 37.6518 155.984 38.7689 154.044 38.5295C152.199 38.3029 150.977 36.7071 151.253 34.741C151.975 29.6182 152.741 24.4987 153.485 19.3791C153.544 18.9674 153.589 18.5524 153.674 17.8822L153.677 17.8854Z" fill="white"/>
<path d="M102.83 26.6632C102.112 27.0047 101.693 27.2377 101.248 27.41C99.9157 27.9207 98.7687 27.6271 97.9856 26.4557C97.1928 25.2684 97.326 23.9693 98.486 23.2033C101.082 21.4894 103.75 19.8584 106.505 18.4061C108.016 17.6082 109.472 18.3998 110.086 20.0882C110.882 22.2745 111.594 24.4896 112.328 26.6983C113.017 28.7697 112.793 29.9124 111.574 30.6912C110.411 31.4348 109.436 31.2274 107.639 29.8326C106.323 31.7508 105.105 33.7361 103.672 35.5649C100.819 39.2099 97.1505 41.8718 92.8192 43.64C90.9769 44.3933 89.3977 43.9337 88.8193 42.5517C88.1662 40.9909 88.8973 39.6919 90.8436 38.8716C96.257 36.5895 100.098 32.7402 102.606 27.5696C102.691 27.3941 102.704 27.1802 102.824 26.6632H102.83Z" fill="white"/>
<path d="M72.4754 8.448C71.8093 12.5622 71.0912 17.0497 70.3601 21.5373C69.6291 26.0249 68.8915 30.5093 68.1506 34.9937C68.0889 35.3576 68.0109 35.7214 67.9037 36.0757C67.3513 37.8822 65.7819 38.8302 63.9168 38.495C62.1816 38.1823 60.9242 36.5417 61.2133 34.7352C62.6788 25.6004 64.167 16.472 65.6974 7.34685C66.0256 5.3967 67.6307 4.30193 69.5543 4.50939C71.3577 4.70409 72.5469 6.14676 72.4819 8.448H72.4754Z" fill="white"/>
<path d="M16.3119 35.8242C14.3915 37.8543 11.974 38.7959 9.10491 38.598C4.84832 38.3075 1.60551 35.2561 1.06288 31.0237C0.559235 27.0785 3.12619 23.2642 7.14883 21.9938C11.1227 20.7394 15.6263 22.329 17.3744 25.9997C18.8951 29.1915 19.9966 32.5813 21.1436 35.9264C21.319 36.4371 20.8576 37.634 20.458 37.7489C19.6359 37.9883 18.5701 37.9085 17.7676 37.5798C17.1729 37.334 16.835 36.4913 16.3119 35.8242ZM9.69303 25.8145C7.2853 25.8432 5.42669 27.7073 5.42344 30.0948C5.4202 32.4951 7.44451 34.4517 9.86849 34.3943C12.2307 34.3368 14.1836 32.3866 14.1803 30.0884C14.1771 27.7009 12.1658 25.7858 9.69628 25.8177L9.69303 25.8145Z" fill="white"/>
<path d="M171.082 38.7026C169.457 38.2365 167.829 37.8727 166.283 37.2981C165.1 36.8577 164.684 35.849 165.269 34.7063C165.825 33.6147 166.731 33.337 167.989 33.7328C169.139 34.0967 170.383 34.3808 171.569 34.3361C172.144 34.3137 172.69 33.4647 173.249 32.9923C172.742 32.5327 172.31 31.8879 171.709 31.6549C170.666 31.2527 169.496 31.1825 168.424 30.8346C166.289 30.1451 164.941 28.7407 164.769 26.4713C164.6 24.2498 165.591 22.5964 167.54 21.4824C170.104 20.0173 172.723 20.2727 175.326 21.3388C176.466 21.8048 176.784 22.7751 176.336 23.8348C175.881 24.9105 174.968 25.1945 173.792 24.9041C172.921 24.687 171.992 24.4828 171.121 24.5721C170.637 24.6232 170.036 25.2233 169.85 25.7084C169.756 25.951 170.393 26.6852 170.838 26.8575C171.781 27.2214 172.814 27.3554 173.811 27.5885C176.638 28.2492 177.805 29.4302 178.169 31.9901C178.494 34.2691 177.454 36.3374 175.153 37.4482C173.925 38.0418 172.515 38.2749 171.082 38.7026Z" fill="white"/>
<path d="M24.6797 35.711C25.2288 32.3086 25.7942 28.7626 26.3693 25.223C26.8957 21.9929 27.4319 18.7661 27.9582 15.536C28.1532 14.3423 28.5074 13.2508 29.8461 12.8295C31.8054 12.2134 33.5113 13.6753 33.1864 15.8042C32.387 21.0195 31.513 26.2252 30.6649 31.4373C30.392 33.1034 30.1515 34.779 29.8201 36.4324C29.5212 37.9229 28.3449 38.7208 26.886 38.5357C25.5375 38.3666 24.6634 37.3005 24.6829 35.7142L24.6797 35.711Z" fill="white"/>
<path d="M183.809 32.0788C185.583 32.1107 187.01 33.5183 187.006 35.2292C187.003 36.9719 185.424 38.4817 183.653 38.4338C181.915 38.3859 180.472 36.94 180.469 35.2355C180.462 33.4385 181.941 32.0437 183.809 32.0788Z" fill="white"/>
</g>
<path d="M0.945813 61.008H13.2818V62.368H0.945813V61.008ZM20.9221 55.696H28.1061V57.056H22.6661V60.176H27.5141V61.52H22.6661V64.656H28.1061V66H20.9221V55.696ZM29.7189 58.416H31.3189L31.3989 59.216C31.7616 58.928 32.1829 58.6987 32.6629 58.528C33.1429 58.3467 33.6549 58.256 34.1989 58.256C35.1803 58.256 35.8949 58.4853 36.3429 58.944C36.7909 59.4027 37.0149 60.1173 37.0149 61.088V66H35.2869V61.168C35.2869 60.5813 35.1643 60.1707 34.9189 59.936C34.6736 59.7013 34.2256 59.584 33.5749 59.584C33.1803 59.584 32.7909 59.664 32.4069 59.824C32.0336 59.984 31.7189 60.192 31.4629 60.448V66H29.7189V58.416ZM42.1049 66.16C41.0063 66.16 40.1529 65.872 39.5449 65.296C38.9476 64.7093 38.6489 63.76 38.6489 62.448C38.6489 61.5627 38.8036 60.8053 39.1129 60.176C39.4223 59.5467 39.8489 59.072 40.3929 58.752C40.9369 58.4213 41.5609 58.256 42.2649 58.256C42.7129 58.256 43.1183 58.3093 43.4809 58.416C43.8436 58.5227 44.1903 58.688 44.5209 58.912V55.216H46.2649V66H44.7769L44.6649 65.248C44.3129 65.568 43.9343 65.8027 43.5289 65.952C43.1236 66.0907 42.6489 66.16 42.1049 66.16ZM42.5689 64.848C43.3476 64.848 43.9983 64.5813 44.5209 64.048V60.256C44.0196 59.808 43.3903 59.584 42.6329 59.584C41.8969 59.584 41.3423 59.8293 40.9689 60.32C40.5956 60.8107 40.4089 61.5253 40.4089 62.464C40.4089 63.3493 40.5743 63.968 40.9049 64.32C41.2463 64.672 41.8009 64.848 42.5689 64.848ZM47.9614 61.008H54.0734V62.368H47.9614V61.008ZM59.3978 66.16C56.7631 66.16 55.4458 64.8427 55.4458 62.208C55.4458 59.5733 56.7631 58.256 59.3978 58.256C62.0431 58.256 63.3658 59.5733 63.3658 62.208C63.3658 64.8427 62.0431 66.16 59.3978 66.16ZM59.3978 64.688C60.1978 64.688 60.7631 64.496 61.0938 64.112C61.4351 63.728 61.6058 63.0933 61.6058 62.208C61.6058 61.3333 61.4351 60.704 61.0938 60.32C60.7631 59.936 60.1978 59.744 59.3978 59.744C58.6085 59.744 58.0431 59.936 57.7018 60.32C57.3711 60.704 57.2058 61.3333 57.2058 62.208C57.2058 63.0933 57.3711 63.728 57.7018 64.112C58.0431 64.496 58.6085 64.688 59.3978 64.688ZM64.9642 59.776H63.8602V58.416H64.9642V57.488C64.9642 56.72 65.1775 56.1067 65.6042 55.648C66.0415 55.1893 66.6655 54.96 67.4762 54.96C68.0202 54.96 68.5375 55.0507 69.0282 55.232V56.48C68.6975 56.3627 68.3615 56.304 68.0202 56.304C67.5189 56.304 67.1722 56.3947 66.9802 56.576C66.7882 56.7467 66.6922 57.056 66.6922 57.504V58.416H68.6762L68.5962 59.776H66.6922V66H64.9642V59.776ZM69.7739 61.008H75.8859V62.368H69.7739V61.008ZM79.4663 66.16C78.8263 66.16 78.3516 66.0053 78.0423 65.696C77.733 65.3867 77.5783 64.8853 77.5783 64.192V55.216H79.3223V64.032C79.3223 64.32 79.3703 64.5227 79.4663 64.64C79.573 64.7467 79.7383 64.8 79.9623 64.8C80.2183 64.8 80.4636 64.768 80.6983 64.704V65.968C80.3463 66.096 79.9356 66.16 79.4663 66.16ZM82.3519 55.392H84.2559V56.832H82.3519V55.392ZM82.4959 59.744H81.3439L81.5039 58.416H84.2399V66H82.4959V59.744ZM86.7298 59.776H85.6258V58.416H86.7298V57.488C86.7298 56.72 86.9431 56.1067 87.3698 55.648C87.8071 55.1893 88.4311 54.96 89.2418 54.96C89.7858 54.96 90.3031 55.0507 90.7938 55.232V56.48C90.4631 56.3627 90.1271 56.304 89.7858 56.304C89.2845 56.304 88.9378 56.3947 88.7458 56.576C88.5538 56.7467 88.4578 57.056 88.4578 57.504V58.416H90.4418L90.3618 59.776H88.4578V66H86.7298V59.776ZM95.0589 66.16C93.7149 66.16 92.6856 65.8293 91.9709 65.168C91.2563 64.5067 90.8989 63.5147 90.8989 62.192C90.8989 60.944 91.2136 59.9787 91.8429 59.296C92.4723 58.6027 93.4056 58.256 94.6429 58.256C95.7629 58.256 96.6216 58.5493 97.2189 59.136C97.8163 59.7227 98.1149 60.5067 98.1149 61.488V62.896H92.5629C92.6483 63.6213 92.9096 64.128 93.3469 64.416C93.7843 64.6933 94.4723 64.832 95.4109 64.832C95.7949 64.832 96.1843 64.7947 96.5789 64.72C96.9843 64.6453 97.3416 64.5493 97.6509 64.432V65.712C96.9789 66.0107 96.1149 66.16 95.0589 66.16ZM96.5789 61.76V61.232C96.5789 60.688 96.4296 60.2773 96.1309 60C95.8323 59.712 95.3523 59.568 94.6909 59.568C93.9016 59.568 93.3469 59.7387 93.0269 60.08C92.7176 60.4213 92.5629 60.9813 92.5629 61.76H96.5789ZM105.735 58.416H107.239L107.335 59.168C107.687 58.8587 108.065 58.6293 108.471 58.48C108.876 58.3307 109.351 58.256 109.895 58.256C111.025 58.256 111.884 58.56 112.471 59.168C113.057 59.776 113.351 60.7467 113.351 62.08C113.351 63.424 113.041 64.4427 112.423 65.136C111.804 65.8187 110.94 66.16 109.831 66.16C108.913 66.16 108.129 65.9467 107.479 65.52V69.456H105.735V58.416ZM109.383 64.848C110.129 64.848 110.684 64.6187 111.047 64.16C111.409 63.7013 111.591 63.0027 111.591 62.064C111.591 61.168 111.425 60.5333 111.095 60.16C110.764 59.776 110.209 59.584 109.431 59.584C108.652 59.584 108.001 59.8507 107.479 60.384V64.176C107.991 64.624 108.625 64.848 109.383 64.848ZM116.935 66.16C116.295 66.16 115.82 66.0053 115.511 65.696C115.202 65.3867 115.047 64.8853 115.047 64.192V55.216H116.791V64.032C116.791 64.32 116.839 64.5227 116.935 64.64C117.042 64.7467 117.207 64.8 117.431 64.8C117.687 64.8 117.932 64.768 118.167 64.704V65.968C117.815 66.096 117.404 66.16 116.935 66.16ZM121.181 66.16C120.413 66.16 119.773 65.9627 119.261 65.568C118.749 65.1627 118.493 64.5867 118.493 63.84C118.493 63.0933 118.743 62.5067 119.245 62.08C119.757 61.6427 120.519 61.424 121.533 61.424H123.965V61.088C123.965 60.7147 123.906 60.4267 123.789 60.224C123.682 60.0107 123.479 59.856 123.181 59.76C122.882 59.664 122.455 59.616 121.901 59.616C121.005 59.616 120.167 59.7493 119.389 60.016V58.72C119.751 58.5813 120.178 58.4693 120.669 58.384C121.159 58.2987 121.677 58.256 122.221 58.256C123.351 58.256 124.199 58.4853 124.765 58.944C125.341 59.4027 125.629 60.128 125.629 61.12V66H124.141L124.029 65.232C123.709 65.5413 123.319 65.776 122.861 65.936C122.402 66.0853 121.842 66.16 121.181 66.16ZM121.645 64.912C122.146 64.912 122.594 64.8267 122.989 64.656C123.383 64.4853 123.709 64.2453 123.965 63.936V62.608H121.565C121.053 62.608 120.679 62.704 120.445 62.896C120.221 63.088 120.109 63.392 120.109 63.808C120.109 64.192 120.237 64.4747 120.493 64.656C120.749 64.8267 121.133 64.912 121.645 64.912ZM127.563 58.416H129.163L129.243 59.216C129.605 58.928 130.027 58.6987 130.507 58.528C130.987 58.3467 131.499 58.256 132.043 58.256C133.024 58.256 133.739 58.4853 134.187 58.944C134.635 59.4027 134.859 60.1173 134.859 61.088V66H133.131V61.168C133.131 60.5813 133.008 60.1707 132.763 59.936C132.517 59.7013 132.069 59.584 131.419 59.584C131.024 59.584 130.635 59.664 130.251 59.824C129.877 59.984 129.563 60.192 129.307 60.448V66H127.563V58.416ZM136.813 58.416H138.413L138.493 59.216C138.855 58.928 139.277 58.6987 139.757 58.528C140.237 58.3467 140.749 58.256 141.293 58.256C142.274 58.256 142.989 58.4853 143.437 58.944C143.885 59.4027 144.109 60.1173 144.109 61.088V66H142.381V61.168C142.381 60.5813 142.258 60.1707 142.013 59.936C141.767 59.7013 141.319 59.584 140.669 59.584C140.274 59.584 139.885 59.664 139.501 59.824C139.127 59.984 138.813 60.192 138.557 60.448V66H136.813V58.416ZM147.071 55.392H148.975V56.832H147.071V55.392ZM147.215 59.744H146.063L146.223 58.416H148.959V66H147.215V59.744ZM150.985 58.416H152.585L152.665 59.216C153.027 58.928 153.449 58.6987 153.929 58.528C154.409 58.3467 154.921 58.256 155.465 58.256C156.446 58.256 157.161 58.4853 157.609 58.944C158.057 59.4027 158.281 60.1173 158.281 61.088V66H156.553V61.168C156.553 60.5813 156.43 60.1707 156.185 59.936C155.939 59.7013 155.491 59.584 154.841 59.584C154.446 59.584 154.057 59.664 153.673 59.824C153.299 59.984 152.985 60.192 152.729 60.448V66H150.985V58.416ZM163.307 68.816C162.72 68.816 162.144 68.7787 161.579 68.704C161.024 68.6293 160.555 68.528 160.171 68.4V67.056C160.576 67.1947 161.056 67.3013 161.611 67.376C162.165 67.4507 162.704 67.488 163.227 67.488C164.037 67.488 164.608 67.44 164.939 67.344C165.269 67.2587 165.435 67.072 165.435 66.784C165.435 66.56 165.344 66.4 165.163 66.304C164.992 66.2187 164.672 66.176 164.203 66.176H162.155C161.483 66.176 160.971 66.0533 160.619 65.808C160.267 65.552 160.091 65.1893 160.091 64.72C160.091 64.3893 160.187 64.096 160.379 63.84C160.571 63.5733 160.853 63.376 161.227 63.248C160.373 62.832 159.947 62.0907 159.947 61.024C159.947 60.064 160.235 59.3653 160.811 58.928C161.387 58.48 162.261 58.256 163.435 58.256C163.861 58.256 164.325 58.3093 164.827 58.416H167.611L167.563 59.552H166.283C166.677 59.904 166.875 60.3947 166.875 61.024C166.875 61.856 166.624 62.5013 166.123 62.96C165.632 63.408 164.896 63.632 163.915 63.632C163.659 63.632 163.344 63.6053 162.971 63.552C162.629 63.584 162.336 63.6747 162.091 63.824C161.845 63.9627 161.723 64.144 161.723 64.368C161.723 64.528 161.787 64.6453 161.915 64.72C162.043 64.784 162.256 64.816 162.555 64.816H164.683C165.44 64.816 166.021 64.9813 166.427 65.312C166.843 65.632 167.051 66.1013 167.051 66.72C167.051 67.456 166.736 67.9893 166.107 68.32C165.488 68.6507 164.555 68.816 163.307 68.816ZM163.435 62.528C164.128 62.528 164.608 62.416 164.875 62.192C165.152 61.9573 165.291 61.552 165.291 60.976C165.291 60.4 165.152 59.9893 164.875 59.744C164.597 59.488 164.117 59.36 163.435 59.36C162.773 59.36 162.293 59.488 161.995 59.744C161.707 59.9893 161.563 60.4 161.563 60.976C161.563 61.5307 161.701 61.9307 161.979 62.176C162.267 62.4107 162.752 62.528 163.435 62.528ZM174.696 61.008H187.032V62.368H174.696V61.008Z" fill="white"/>
<defs>
<clipPath id="clip0_205_199603">
<rect width="186" height="43.9981" fill="white" transform="translate(1)"/>
</clipPath>
</defs>
</svg>
