<svg width="210" height="50" viewBox="0 0 210 50" fill="none" xmlns="http://www.w3.org/2000/svg">
<g clip-path="url(#clip0_205_199293)">
<path d="M140.515 20.3634C144.459 20.3634 148.171 20.3997 151.884 20.3054C152.247 20.2945 152.812 19.5111 152.9 19.0178C153.432 16.0036 153.773 12.9568 154.342 9.94632C154.778 7.62133 156.917 6.25753 159.045 6.73268C161.132 7.19696 162.538 8.99964 162.237 11.136C160.85 20.9438 159.427 30.7479 157.963 40.5448C157.633 42.7646 155.593 44.2662 153.546 44.0087C151.282 43.7258 149.764 41.9558 150.009 39.551C150.318 36.5078 150.846 33.4864 151.271 30.4541C151.359 29.8157 151.422 29.1737 151.513 28.4084H139.359C138.85 31.8578 138.351 35.2347 137.848 38.6152C137.753 39.268 137.657 39.9246 137.529 40.5702C137.07 42.819 135.185 44.2807 133.116 44.0015C130.808 43.6931 129.234 41.691 129.568 39.3406C130.423 33.3377 131.325 27.342 132.209 21.3428C132.745 17.7193 133.266 14.0958 133.827 10.4759C134.227 7.88974 136.194 6.30831 138.461 6.68916C140.816 7.08452 142.177 9.07581 141.814 11.6583C141.421 14.4512 140.988 17.2369 140.522 20.3562L140.515 20.3634Z" fill="#101A50"/>
<path d="M59.4925 32.0929C60.5013 34.1168 61.4588 35.9884 62.3723 37.8782C63.5169 40.2431 62.9189 42.3903 60.8609 43.4313C58.8065 44.4687 56.631 43.6453 55.4204 41.2985C53.8502 38.2481 52.3204 35.176 50.787 32.1074C49.1434 28.8176 50.3504 26.4527 53.9933 25.7889C57.2913 25.1905 58.5166 23.1847 57.4968 20.0145C57.0089 18.4912 55.967 17.617 54.3235 17.4357C49.4259 16.8916 49.4076 16.9025 48.6335 21.6468C47.6577 27.6279 46.7185 33.6199 45.6766 39.5902C45.4895 40.6674 45.075 41.8462 44.3853 42.6696C43.2664 44.008 41.6449 44.1567 40.038 43.4567C38.4202 42.753 37.5691 41.0084 37.8736 39.0969C38.7174 33.823 39.5795 28.5492 40.4453 23.279C40.9882 19.9638 41.5385 16.6449 42.1108 13.3334C42.5253 10.9467 43.769 9.84407 46.1829 9.80417C48.9307 9.76065 51.6821 9.73888 54.4299 9.82231C59.5512 9.9819 63.4839 13.0178 64.9513 17.8346C66.6242 23.3334 65.1457 28.1683 60.8719 31.1571C60.4793 31.4328 60.0758 31.6975 59.4961 32.0929H59.4925Z" fill="#101A50"/>
<path d="M106.841 0.00443101C113.199 0.138635 118.585 2.46363 122.987 6.97578C124.806 8.84012 124.92 11.1579 123.295 12.7357C121.67 14.3171 119.362 14.1539 117.466 12.3222C109.729 4.85391 98.1653 6.54052 93.3374 15.8441C90.3292 21.6403 91.9837 29.0505 97.2371 33.287C97.615 33.5917 98.0222 33.8601 98.4037 34.1575C100.352 35.6773 100.788 37.9333 99.4823 39.6925C98.1543 41.4807 95.8687 41.7237 93.807 40.2873C88.6784 36.7146 85.5307 31.8869 84.4118 25.8042C81.9392 12.3584 92.9266 -0.271231 106.841 0.00443101Z" fill="#101A50"/>
<path d="M172.377 20.3203C170.803 20.3203 169.468 20.353 168.136 20.3131C165.872 20.2442 164.354 18.8405 164.277 16.802C164.199 14.7309 165.572 13.0407 167.806 13.0044C174.152 12.8956 180.503 12.8956 186.849 12.9972C189.102 13.0334 190.47 14.6874 190.408 16.7694C190.349 18.8296 188.86 20.2551 186.592 20.3095C184.468 20.3602 182.337 20.3203 180.059 20.3203C179.424 24.604 178.811 28.7425 178.202 32.8847C177.828 35.4382 177.491 37.9953 177.076 40.5416C176.709 42.7832 174.981 44.0527 172.791 43.7806C170.708 43.5231 169.328 41.7095 169.64 39.4752C170.454 33.6537 171.32 27.8358 172.16 22.0178C172.226 21.5499 172.278 21.0784 172.373 20.3167L172.377 20.3203Z" fill="#101A50"/>
<path d="M114.973 30.3009C114.162 30.689 113.689 30.9538 113.186 31.1496C111.682 31.73 110.387 31.3963 109.503 30.0651C108.608 28.7158 108.758 27.2396 110.068 26.3691C112.999 24.4213 116.011 22.5679 119.122 20.9175C120.828 20.0107 122.472 20.9103 123.165 22.829C124.064 25.3136 124.867 27.8308 125.696 30.3408C126.474 32.6948 126.221 33.9933 124.845 34.8783C123.532 35.7235 122.431 35.4877 120.402 33.9026C118.917 36.0825 117.541 38.3386 115.923 40.417C112.702 44.5591 108.56 47.5842 103.67 49.5936C101.59 50.4496 99.8071 49.9273 99.1541 48.3568C98.4167 46.5831 99.2422 45.1068 101.44 44.1747C107.551 41.5813 111.888 37.207 114.72 31.331C114.815 31.1315 114.83 30.8885 114.966 30.3009H114.973Z" fill="#C68700"/>
<path d="M80.6996 9.60587C79.9475 14.2812 79.1368 19.381 78.3114 24.4807C77.4859 29.5805 76.6532 34.6766 75.8167 39.7727C75.747 40.1862 75.659 40.5997 75.5379 41.0023C74.9143 43.0553 73.1423 44.1325 71.0366 43.7517C69.0776 43.3962 67.6578 41.5319 67.9843 39.4789C69.6388 29.0981 71.3191 18.7245 73.047 8.35451C73.4175 6.13834 75.2297 4.89423 77.4015 5.12999C79.4376 5.35125 80.7803 6.99071 80.7069 9.60587H80.6996Z" fill="#101A50"/>
<path d="M17.2876 40.7133C15.1195 43.0201 12.3901 44.0901 9.1507 43.8652C4.34488 43.5352 0.683641 40.0676 0.07099 35.2581C-0.497638 30.7749 2.40053 26.4405 6.94222 24.9969C11.4289 23.5715 16.5135 25.3778 18.4872 29.549C20.2041 33.1761 21.4478 37.0281 22.7428 40.8293C22.9409 41.4097 22.4199 42.7699 21.9687 42.9004C21.0405 43.1725 19.8372 43.0818 18.9311 42.7082C18.2598 42.4289 17.8782 41.4713 17.2876 40.7133ZM9.81471 29.3386C7.0963 29.3712 4.99788 31.4895 4.99421 34.2026C4.99054 36.9302 7.27606 39.1536 10.0128 39.0883C12.6799 39.023 14.8847 36.8069 14.881 34.1953C14.8773 31.4822 12.6065 29.3059 9.81838 29.3422L9.81471 29.3386Z" fill="#101A50"/>
<path d="M192.024 43.9791C190.19 43.4496 188.352 43.0361 186.605 42.3832C185.27 41.8826 184.801 40.7365 185.461 39.438C186.088 38.1975 187.112 37.8819 188.531 38.3317C189.83 38.7452 191.235 39.068 192.574 39.0172C193.224 38.9918 193.84 38.027 194.471 37.4902C193.899 36.9679 193.411 36.2352 192.732 35.9704C191.554 35.5134 190.234 35.4336 189.023 35.0382C186.613 34.2548 185.09 32.6588 184.896 30.08C184.705 27.5555 185.824 25.6766 188.025 24.4108C190.92 22.7459 193.877 23.0361 196.815 24.2475C198.103 24.7771 198.462 25.8797 197.956 27.0839C197.442 28.3063 196.412 28.6291 195.084 28.299C194.1 28.0524 193.051 27.8203 192.068 27.9218C191.521 27.9798 190.843 28.6617 190.634 29.2131C190.527 29.4887 191.246 30.323 191.749 30.5188C192.813 30.9323 193.979 31.0847 195.106 31.3495C198.297 32.1003 199.614 33.4423 200.025 36.3513C200.392 38.941 199.218 41.2914 196.621 42.5537C195.234 43.2283 193.642 43.4931 192.024 43.9791Z" fill="#101A50"/>
<path d="M26.7344 40.5783C27.3544 36.7118 27.9927 32.682 28.642 28.6595C29.2363 24.9889 29.8417 21.3218 30.436 17.6512C30.6561 16.2946 31.056 15.0542 32.5674 14.5754C34.7796 13.8753 36.7056 15.5366 36.3387 17.9559C35.4362 23.8826 34.4494 29.7984 33.4919 35.7215C33.1837 37.6149 32.9122 39.5192 32.5381 41.398C32.2005 43.0919 30.8725 43.9987 29.2253 43.7883C27.7029 43.596 26.716 42.3846 26.738 40.5819L26.7344 40.5783Z" fill="#101A50"/>
<path d="M206.396 36.4617C208.399 36.4979 210.01 38.0975 210.006 40.0417C210.003 42.0221 208.22 43.7377 206.22 43.6833C204.258 43.6289 202.629 41.9858 202.625 40.0489C202.618 38.0068 204.287 36.4218 206.396 36.4617Z" fill="#101A50"/>
<path d="M9.81636 29.3318C12.6045 29.2955 14.8753 31.4718 14.879 34.1849C14.8827 36.7964 12.6778 39.0126 10.0108 39.0779C7.27404 39.1468 4.98852 36.9197 4.99219 34.1921C4.99586 31.479 7.09428 29.3608 9.81269 29.3281L9.81636 29.3318Z" fill="white"/>
</g>
<defs>
<clipPath id="clip0_205_199293">
<rect width="210" height="50" fill="white"/>
</clipPath>
</defs>
</svg>
